<?xml version="1.0" encoding="UTF-8" standalone="no"?>
<!DOCTYPE svg PUBLIC "-//W3C//DTD SVG 1.1//EN"
 "http://www.w3.org/Graphics/SVG/1.1/DTD/svg11.dtd">
<!-- Generated by graphviz version 8.1.0 (20230707.0739)
 -->
<!-- Title: PROV&#45;O render Pages: 1 -->
<svg width="667pt" height="282pt"
 viewBox="0.00 0.00 667.05 282.20" xmlns="http://www.w3.org/2000/svg" xmlns:xlink="http://www.w3.org/1999/xlink">
<g id="graph0" class="graph" transform="scale(1 1) rotate(0) translate(4 278.2)">
<title>PROV&#45;O render</title>
<polygon fill="white" stroke="none" points="-4,4 -4,-278.2 663.05,-278.2 663.05,4 -4,4"/>
<!-- _681177370bfbced26b33a112314a5d682d1a4ad432a26a5335c8f87b012318ee -->
<g id="node1" class="node">
<title>_681177370bfbced26b33a112314a5d682d1a4ad432a26a5335c8f87b012318ee</title>
<g id="a_node1"><a xlink:title="ID &#45; urn:example:Action&#45;417af923&#45;6ff4&#45;48da&#45;b7a7&#45;177cb5f3d6f3">
<polygon fill="#9fb1fc" stroke="#0000ff" points="320.5,-157.6 0,-157.6 0,-116.6 320.5,-116.6 320.5,-157.6"/>
<text text-anchor="middle" x="160.25" y="-140.3" font-family="Times,serif" font-size="14.00">ID &#45; kb:Action&#45;417af923&#45;6ff4&#45;48da&#45;b7a7&#45;177cb5f3d6f3</text>
<text text-anchor="middle" x="160.25" y="-123.8" font-family="Times,serif" font-size="14.00">[2020&#45;01&#45;02T04:00:00+00:00, ...)</text>
</a>
</g>
</g>
<!-- _ed3d969574bef218f0ac14e36ffe14c3b8c54379c9e704e7b5b1d8eb48161d6b -->
<g id="node7" class="node">
<title>_ed3d969574bef218f0ac14e36ffe14c3b8c54379c9e704e7b5b1d8eb48161d6b</title>
<g id="a_node7"><a xlink:title="Start of urn:example:Action&#45;417af923&#45;6ff4&#45;48da&#45;b7a7&#45;177cb5f3d6f3">
<ellipse fill="lightgray" stroke="dimgray" cx="269.25" cy="-214.1" rx="1.8" ry="1.8"/>
</a>
</g>
</g>
<!-- _681177370bfbced26b33a112314a5d682d1a4ad432a26a5335c8f87b012318ee&#45;&gt;_ed3d969574bef218f0ac14e36ffe14c3b8c54379c9e704e7b5b1d8eb48161d6b -->
<g id="edge7" class="edge">
<title>_681177370bfbced26b33a112314a5d682d1a4ad432a26a5335c8f87b012318ee&#45;&gt;_ed3d969574bef218f0ac14e36ffe14c3b8c54379c9e704e7b5b1d8eb48161d6b</title>
<path fill="none" stroke="dimgray" stroke-dasharray="1,5" d="M189.17,-158C215.01,-175.78 250.76,-200.38 264.02,-209.5"/>
<polygon fill="dimgray" stroke="dimgray" points="270.05,-207.58 264.38,-215.82 262.74,-214.69 268.41,-206.45 270.05,-207.58"/>
<polyline fill="none" stroke="dimgray" points="268.04,-212.27 263.92,-209.43"/>
</g>
<!-- _936610e65ec0551309349b62f71f72404694da793d404b2a264828126d4bd276 -->
<g id="node2" class="node">
<title>_936610e65ec0551309349b62f71f72404694da793d404b2a264828126d4bd276</title>
<g id="a_node2"><a xlink:title="ID &#45; urn:example:Action&#45;60dddd50&#45;07ac&#45;4177&#45;930d&#45;7954c56f49b9">
<polygon fill="#9fb1fc" stroke="#0000ff" points="421.75,-80.6 72.75,-80.6 72.75,-39.6 421.75,-39.6 421.75,-80.6"/>
<text text-anchor="middle" x="247.25" y="-63.3" font-family="Times,serif" font-size="14.00">ID &#45; kb:Action&#45;60dddd50&#45;07ac&#45;4177&#45;930d&#45;7954c56f49b9</text>
<text text-anchor="middle" x="247.25" y="-46.8" font-family="Times,serif" font-size="14.00">[2020&#45;01&#45;02T05:00:00+00:00, 2020&#45;01&#45;02T08:00:00+00:00]</text>
</a>
</g>
</g>
<!-- _1f2bbec1d6ac44143a5541f6b7cca4163349ce582e700b518dd3d8bef3580196 -->
<g id="node8" class="node">
<title>_1f2bbec1d6ac44143a5541f6b7cca4163349ce582e700b518dd3d8bef3580196</title>
<g id="a_node8"><a xlink:title="Start of urn:example:Action&#45;60dddd50&#45;07ac&#45;4177&#45;930d&#45;7954c56f49b9">
<ellipse fill="lightgray" stroke="dimgray" cx="340.25" cy="-137.1" rx="1.8" ry="1.8"/>
</a>
</g>
</g>
<!-- _936610e65ec0551309349b62f71f72404694da793d404b2a264828126d4bd276&#45;&gt;_1f2bbec1d6ac44143a5541f6b7cca4163349ce582e700b518dd3d8bef3580196 -->
<g id="edge10" class="edge">
<title>_936610e65ec0551309349b62f71f72404694da793d404b2a264828126d4bd276&#45;&gt;_1f2bbec1d6ac44143a5541f6b7cca4163349ce582e700b518dd3d8bef3580196</title>
<path fill="none" stroke="dimgray" stroke-dasharray="1,5" d="M284.34,-81.1C299.49,-90.49 316.43,-102.7 329.25,-116.6 333.02,-120.69 336.01,-126.29 337.91,-130.44"/>
<polygon fill="dimgray" stroke="dimgray" points="344.03,-132.06 334.82,-135.96 334.04,-134.11 343.25,-130.21 344.03,-132.06"/>
<polyline fill="none" stroke="dimgray" points="339.81,-134.93 337.86,-130.32"/>
</g>
<!-- _cbccc8bf5743bca7a80ff0e3226563ef383df97cc032252160f22a29130607a2 -->
<g id="node3" class="node">
<title>_cbccc8bf5743bca7a80ff0e3226563ef383df97cc032252160f22a29130607a2</title>
<g id="a_node3"><a xlink:title="ID &#45; urn:example:Action&#45;e9f1edc9&#45;4e0c&#45;43c3&#45;a1c4&#45;891143e3fa86">
<polygon fill="#9fb1fc" stroke="#0000ff" points="637.75,-234.6 288.75,-234.6 288.75,-193.6 637.75,-193.6 637.75,-234.6"/>
<text text-anchor="middle" x="463.25" y="-217.3" font-family="Times,serif" font-size="14.00">ID &#45; kb:Action&#45;e9f1edc9&#45;4e0c&#45;43c3&#45;a1c4&#45;891143e3fa86</text>
<text text-anchor="middle" x="463.25" y="-200.8" font-family="Times,serif" font-size="14.00">[2020&#45;01&#45;02T03:00:00+00:00, 2020&#45;01&#45;02T06:00:00+00:00]</text>
</a>
</g>
</g>
<!-- _c721d26c1cf9d9802944628feb5ddf470d8781f440271821a0c12f5820df5869 -->
<g id="node6" class="node">
<title>_c721d26c1cf9d9802944628feb5ddf470d8781f440271821a0c12f5820df5869</title>
<g id="a_node6"><a xlink:title="Start of urn:example:Action&#45;e9f1edc9&#45;4e0c&#45;43c3&#45;a1c4&#45;891143e3fa86">
<ellipse fill="lightgray" stroke="dimgray" cx="463.25" cy="-272.4" rx="1.8" ry="1.8"/>
</a>
</g>
</g>
<!-- _cbccc8bf5743bca7a80ff0e3226563ef383df97cc032252160f22a29130607a2&#45;&gt;_c721d26c1cf9d9802944628feb5ddf470d8781f440271821a0c12f5820df5869 -->
<g id="edge4" class="edge">
<title>_cbccc8bf5743bca7a80ff0e3226563ef383df97cc032252160f22a29130607a2&#45;&gt;_c721d26c1cf9d9802944628feb5ddf470d8781f440271821a0c12f5820df5869</title>
<path fill="none" stroke="dimgray" stroke-dasharray="1,5" d="M463.25,-234.79C463.25,-245.69 463.25,-258.46 463.25,-265.67"/>
<polygon fill="dimgray" stroke="dimgray" points="468.25,-269.26 458.25,-269.26 458.25,-267.26 468.25,-267.26 468.25,-269.26"/>
<polyline fill="none" stroke="dimgray" points="463.25,-270.26 463.25,-265.26"/>
</g>
<!-- _2836c2cf5931b13afbaabc2f580ff228b46f9ac84427a45e4c5c18ab6da4f229 -->
<g id="node4" class="node">
<title>_2836c2cf5931b13afbaabc2f580ff228b46f9ac84427a45e4c5c18ab6da4f229</title>
<g id="a_node4"><a xlink:title="End of urn:example:Action&#45;e9f1edc9&#45;4e0c&#45;43c3&#45;a1c4&#45;891143e3fa86">
<ellipse fill="lightgray" stroke="dimgray" cx="463.25" cy="-60.1" rx="1.8" ry="1.8"/>
</a>
</g>
</g>
<!-- _2836c2cf5931b13afbaabc2f580ff228b46f9ac84427a45e4c5c18ab6da4f229&#45;&gt;_cbccc8bf5743bca7a80ff0e3226563ef383df97cc032252160f22a29130607a2 -->
<g id="edge2" class="edge">
<title>_2836c2cf5931b13afbaabc2f580ff228b46f9ac84427a45e4c5c18ab6da4f229&#45;&gt;_cbccc8bf5743bca7a80ff0e3226563ef383df97cc032252160f22a29130607a2</title>
<path fill="none" stroke="dimgray" stroke-dasharray="1,5" d="M463.25,-66.93C463.25,-87.62 463.25,-158.18 463.25,-193.14"/>
<polygon fill="dimgray" stroke="dimgray" points="458.25,-63.07 468.25,-63.07 468.25,-65.07 458.25,-65.07 458.25,-63.07"/>
<polyline fill="none" stroke="dimgray" points="463.25,-62.07 463.25,-67.07"/>
</g>
<!-- _2836c2cf5931b13afbaabc2f580ff228b46f9ac84427a45e4c5c18ab6da4f229&#45;&gt;_1f2bbec1d6ac44143a5541f6b7cca4163349ce582e700b518dd3d8bef3580196 -->
<g id="edge11" class="edge">
<title>_2836c2cf5931b13afbaabc2f580ff228b46f9ac84427a45e4c5c18ab6da4f229&#45;&gt;_1f2bbec1d6ac44143a5541f6b7cca4163349ce582e700b518dd3d8bef3580196</title>
<path fill="none" stroke="dimgray" stroke-dasharray="1,5" d="M462.89,-62.35C461.83,-65.77 458.43,-75.39 452.25,-80.6 415.79,-111.29 387.71,-85.91 351.25,-116.6 348.64,-118.8 346.53,-121.78 344.88,-124.75"/>
<polygon fill="dimgray" stroke="dimgray" points="341.28,-123.28 340.61,-133.85 347.73,-126 341.28,-123.28"/>
</g>
<!-- _ebd2d0c7deb947fc7e764b4590c54ab059b05801f8b9736caf1664192379d78f -->
<g id="node9" class="node">
<title>_ebd2d0c7deb947fc7e764b4590c54ab059b05801f8b9736caf1664192379d78f</title>
<g id="a_node9"><a xlink:title="Usage of http://www.w3.org/ns/prov#EmptyCollection in urn:example:Action&#45;e9f1edc9&#45;4e0c&#45;43c3&#45;a1c4&#45;891143e3fa86">
<ellipse fill="lightgray" stroke="dimgray" cx="657.25" cy="-214.1" rx="1.8" ry="1.8"/>
</a>
</g>
</g>
<!-- _2836c2cf5931b13afbaabc2f580ff228b46f9ac84427a45e4c5c18ab6da4f229&#45;&gt;_ebd2d0c7deb947fc7e764b4590c54ab059b05801f8b9736caf1664192379d78f -->
<g id="edge13" class="edge">
<title>_2836c2cf5931b13afbaabc2f580ff228b46f9ac84427a45e4c5c18ab6da4f229&#45;&gt;_ebd2d0c7deb947fc7e764b4590c54ab059b05801f8b9736caf1664192379d78f</title>
<path fill="none" stroke="dimgray" stroke-dasharray="1,5" d="M464.59,-61.75C477.83,-68.19 585.65,-121.97 647.25,-193.6 649.35,-196.04 651.15,-198.99 652.62,-201.85"/>
<polygon fill="dimgray" stroke="dimgray" points="649.76,-203.08 656.87,-210.93 656.21,-200.36 649.76,-203.08"/>
</g>
<!-- _912a72d841c318eb5b4875a1e5355a418bde5a06ed6aef7b34cfcfd841e76fef -->
<g id="node5" class="node">
<title>_912a72d841c318eb5b4875a1e5355a418bde5a06ed6aef7b34cfcfd841e76fef</title>
<g id="a_node5"><a xlink:title="End of urn:example:Action&#45;60dddd50&#45;07ac&#45;4177&#45;930d&#45;7954c56f49b9">
<ellipse fill="lightgray" stroke="dimgray" cx="441.25" cy="-1.8" rx="1.8" ry="1.8"/>
</a>
</g>
</g>
<!-- _912a72d841c318eb5b4875a1e5355a418bde5a06ed6aef7b34cfcfd841e76fef&#45;&gt;_936610e65ec0551309349b62f71f72404694da793d404b2a264828126d4bd276 -->
<g id="edge1" class="edge">
<title>_912a72d841c318eb5b4875a1e5355a418bde5a06ed6aef7b34cfcfd841e76fef&#45;&gt;_936610e65ec0551309349b62f71f72404694da793d404b2a264828126d4bd276</title>
<path fill="none" stroke="dimgray" stroke-dasharray="1,5" d="M435.21,-4.55C417.14,-9.8 361.92,-25.82 315.98,-39.15"/>
<polygon fill="dimgray" stroke="dimgray" points="437.22,1.24 440.01,-8.37 438.09,-8.92 435.3,0.68 437.22,1.24"/>
<polyline fill="none" stroke="dimgray" points="439.57,-3.29 434.77,-4.68"/>
</g>
<!-- _912a72d841c318eb5b4875a1e5355a418bde5a06ed6aef7b34cfcfd841e76fef&#45;&gt;_2836c2cf5931b13afbaabc2f580ff228b46f9ac84427a45e4c5c18ab6da4f229 -->
<g id="edge3" class="edge">
<title>_912a72d841c318eb5b4875a1e5355a418bde5a06ed6aef7b34cfcfd841e76fef&#45;&gt;_2836c2cf5931b13afbaabc2f580ff228b46f9ac84427a45e4c5c18ab6da4f229</title>
<path fill="none" stroke="dimgray" stroke-dasharray="1,5" d="M441.63,-3.78C443.64,-8.91 453.08,-33.09 458.81,-47.73"/>
<polygon fill="dimgray" stroke="dimgray" points="455.89,-48.87 462.79,-56.91 462.41,-46.32 455.89,-48.87"/>
</g>
<!-- _70619abae0dd99551ba81004d114bf94b86c8252b0e82d6b7b570ee5d244115b -->
<g id="node11" class="node">
<title>_70619abae0dd99551ba81004d114bf94b86c8252b0e82d6b7b570ee5d244115b</title>
<g id="a_node11"><a xlink:title="Usage of http://www.w3.org/ns/prov#EmptyCollection in urn:example:Action&#45;60dddd50&#45;07ac&#45;4177&#45;930d&#45;7954c56f49b9">
<ellipse fill="lightgray" stroke="dimgray" cx="441.25" cy="-60.1" rx="1.8" ry="1.8"/>
</a>
</g>
</g>
<!-- _912a72d841c318eb5b4875a1e5355a418bde5a06ed6aef7b34cfcfd841e76fef&#45;&gt;_70619abae0dd99551ba81004d114bf94b86c8252b0e82d6b7b570ee5d244115b -->
<g id="edge14" class="edge">
<title>_912a72d841c318eb5b4875a1e5355a418bde5a06ed6aef7b34cfcfd841e76fef&#45;&gt;_70619abae0dd99551ba81004d114bf94b86c8252b0e82d6b7b570ee5d244115b</title>
<path fill="none" stroke="dimgray" stroke-dasharray="1,5" d="M441.25,-3.78C441.25,-8.86 441.25,-32.59 441.25,-47.27"/>
<polygon fill="dimgray" stroke="dimgray" points="437.75,-46.91 441.25,-56.91 444.75,-46.91 437.75,-46.91"/>
</g>
<!-- _ed3d969574bef218f0ac14e36ffe14c3b8c54379c9e704e7b5b1d8eb48161d6b&#45;&gt;_c721d26c1cf9d9802944628feb5ddf470d8781f440271821a0c12f5820df5869 -->
<g id="edge5" class="edge">
<title>_ed3d969574bef218f0ac14e36ffe14c3b8c54379c9e704e7b5b1d8eb48161d6b&#45;&gt;_c721d26c1cf9d9802944628feb5ddf470d8781f440271821a0c12f5820df5869</title>
<path fill="none" stroke="dimgray" stroke-dasharray="1,5" d="M269.43,-216.02C270.08,-219.17 272.69,-229.65 279.25,-234.6 306.66,-255.32 413.82,-266.88 450.7,-270.31"/>
<polygon fill="dimgray" stroke="dimgray" points="450.28,-273.87 460.55,-271.26 450.9,-266.9 450.28,-273.87"/>
</g>
<!-- _1f2bbec1d6ac44143a5541f6b7cca4163349ce582e700b518dd3d8bef3580196&#45;&gt;_ed3d969574bef218f0ac14e36ffe14c3b8c54379c9e704e7b5b1d8eb48161d6b -->
<g id="edge8" class="edge">
<title>_1f2bbec1d6ac44143a5541f6b7cca4163349ce582e700b518dd3d8bef3580196&#45;&gt;_ed3d969574bef218f0ac14e36ffe14c3b8c54379c9e704e7b5b1d8eb48161d6b</title>
<path fill="none" stroke="dimgray" stroke-dasharray="1,5" d="M339.8,-139.26C338.53,-142.47 334.64,-151.58 329.25,-157.6 310.99,-178 297.11,-172.84 279.25,-193.6 277.15,-196.04 275.35,-198.99 273.88,-201.85"/>
<polygon fill="dimgray" stroke="dimgray" points="270.29,-200.36 269.63,-210.93 276.74,-203.08 270.29,-200.36"/>
</g>
<!-- _ebd2d0c7deb947fc7e764b4590c54ab059b05801f8b9736caf1664192379d78f&#45;&gt;_c721d26c1cf9d9802944628feb5ddf470d8781f440271821a0c12f5820df5869 -->
<g id="edge6" class="edge">
<title>_ebd2d0c7deb947fc7e764b4590c54ab059b05801f8b9736caf1664192379d78f&#45;&gt;_c721d26c1cf9d9802944628feb5ddf470d8781f440271821a0c12f5820df5869</title>
<path fill="none" stroke="dimgray" stroke-dasharray="1,5" d="M657.07,-216.02C656.42,-219.17 653.81,-229.65 647.25,-234.6 619.84,-255.32 512.68,-266.88 475.8,-270.31"/>
<polygon fill="dimgray" stroke="dimgray" points="475.6,-266.9 465.95,-271.26 476.22,-273.87 475.6,-266.9"/>
</g>
<!-- _c9c2c9e3cfe223c13299c48f9bbb85a8f73e8688fb4d0e45ce307cc29ae3ca79 -->
<g id="node10" class="node">
<title>_c9c2c9e3cfe223c13299c48f9bbb85a8f73e8688fb4d0e45ce307cc29ae3ca79</title>
<g id="a_node10"><a xlink:title="Usage of http://www.w3.org/ns/prov#EmptyCollection in urn:example:Action&#45;417af923&#45;6ff4&#45;48da&#45;b7a7&#45;177cb5f3d6f3">
<ellipse fill="lightgray" stroke="dimgray" cx="362.25" cy="-137.1" rx="1.8" ry="1.8"/>
</a>
</g>
</g>
<!-- _c9c2c9e3cfe223c13299c48f9bbb85a8f73e8688fb4d0e45ce307cc29ae3ca79&#45;&gt;_ed3d969574bef218f0ac14e36ffe14c3b8c54379c9e704e7b5b1d8eb48161d6b -->
<g id="edge9" class="edge">
<title>_c9c2c9e3cfe223c13299c48f9bbb85a8f73e8688fb4d0e45ce307cc29ae3ca79&#45;&gt;_ed3d969574bef218f0ac14e36ffe14c3b8c54379c9e704e7b5b1d8eb48161d6b</title>
<path fill="none" stroke="dimgray" stroke-dasharray="1,5" d="M361.85,-139.31C360.71,-142.64 357.11,-152.03 351.25,-157.6 325.33,-182.26 304.68,-168.43 279.25,-193.6 276.88,-195.95 274.96,-198.98 273.46,-201.95"/>
<polygon fill="dimgray" stroke="dimgray" points="269.95,-200.3 269.58,-210.89 276.47,-202.84 269.95,-200.3"/>
</g>
<!-- _70619abae0dd99551ba81004d114bf94b86c8252b0e82d6b7b570ee5d244115b&#45;&gt;_1f2bbec1d6ac44143a5541f6b7cca4163349ce582e700b518dd3d8bef3580196 -->
<g id="edge12" class="edge">
<title>_70619abae0dd99551ba81004d114bf94b86c8252b0e82d6b7b570ee5d244115b&#45;&gt;_1f2bbec1d6ac44143a5541f6b7cca4163349ce582e700b518dd3d8bef3580196</title>
<path fill="none" stroke="dimgray" stroke-dasharray="1,5" d="M440.86,-62.32C439.75,-65.68 436.21,-75.13 430.25,-80.6 401.82,-106.69 379.68,-90.51 351.25,-116.6 348.74,-118.91 346.65,-121.92 345,-124.89"/>
<polygon fill="dimgray" stroke="dimgray" points="341.44,-123.31 340.64,-133.88 347.85,-126.12 341.44,-123.31"/>
</g>
</g>
</svg>
