<?xml version="1.0" encoding="UTF-8" standalone="no"?>
<!DOCTYPE svg PUBLIC "-//W3C//DTD SVG 1.1//EN"
 "http://www.w3.org/Graphics/SVG/1.1/DTD/svg11.dtd">
<!-- Generated by graphviz version 8.0.3 (20230416.2022)
 -->
<!-- Title: PROV&#45;O render Pages: 1 -->
<svg width="358pt" height="216pt"
 viewBox="0.00 0.00 358.00 216.00" xmlns="http://www.w3.org/2000/svg" xmlns:xlink="http://www.w3.org/1999/xlink">
<g id="graph0" class="graph" transform="scale(1 1) rotate(0) translate(4 212)">
<title>PROV&#45;O render</title>
<polygon fill="white" stroke="none" points="-4,4 -4,-212 354,-212 354,4 -4,4"/>
<!-- _dfa40afa8223607a4487772fe58783fb86ed8b6c03657ebaf7603a06c87ac4cd -->
<g id="node1" class="node">
<title>_dfa40afa8223607a4487772fe58783fb86ed8b6c03657ebaf7603a06c87ac4cd</title>
<g id="a_node1"><a xlink:title="ID &#45; urn:example:activity1">
<polygon fill="#9fb1fc" stroke="#0000ff" points="276.5,-208 73.5,-208 73.5,-170 276.5,-170 276.5,-208"/>
<text text-anchor="middle" x="175" y="-192.8" font-family="Times,serif" font-size="14.00">ID &#45; kb:activity1</text>
<text text-anchor="middle" x="175" y="-177.8" font-family="Times,serif" font-size="14.00">[2020&#45;01&#45;02T03:04:05+00:00, ...)</text>
</a>
</g>
</g>
<!-- _1dc69e0ebb51673345ae966d7c1ed38f939e9f2a3eb4c3753722e4a4aab66fb1 -->
<g id="node2" class="node">
<title>_1dc69e0ebb51673345ae966d7c1ed38f939e9f2a3eb4c3753722e4a4aab66fb1</title>
<g id="a_node2"><a xlink:title="ID &#45; urn:example:activity2">
<polygon fill="#9fb1fc" stroke="#0000ff" points="350,-123 0,-123 0,-85 350,-85 350,-123"/>
<text text-anchor="middle" x="175" y="-107.8" font-family="Times,serif" font-size="14.00">ID &#45; kb:activity2</text>
<text text-anchor="middle" x="175" y="-92.8" font-family="Times,serif" font-size="14.00">[2020&#45;01&#45;02T06:07:08+00:00, 2020&#45;01&#45;02T12:00:01+00:00]</text>
</a>
</g>
</g>
<!-- _1dc69e0ebb51673345ae966d7c1ed38f939e9f2a3eb4c3753722e4a4aab66fb1&#45;&gt;_dfa40afa8223607a4487772fe58783fb86ed8b6c03657ebaf7603a06c87ac4cd -->
<g id="edge1" class="edge">
<title>_1dc69e0ebb51673345ae966d7c1ed38f939e9f2a3eb4c3753722e4a4aab66fb1&#45;&gt;_dfa40afa8223607a4487772fe58783fb86ed8b6c03657ebaf7603a06c87ac4cd</title>
<path fill="none" stroke="#0000cd" d="M175,-123.42C175,-133.84 175,-147.12 175,-158.91"/>
<polygon fill="#0000cd" stroke="#0000cd" points="171.5,-158.63 175,-168.63 178.5,-158.63 171.5,-158.63"/>
<text text-anchor="middle" x="207.5" y="-144" font-family="Times,serif" font-size="10.00">wasInformedBy</text>
</g>
<!-- _526944cfe3743b492c3f7751131a98aa3eb5bc97b4085097a36a0eda13b85b9d -->
<g id="node3" class="node">
<title>_526944cfe3743b492c3f7751131a98aa3eb5bc97b4085097a36a0eda13b85b9d</title>
<g id="a_node3"><a xlink:title="ID &#45; urn:example:activity3">
<polygon fill="#9fb1fc" stroke="#0000ff" points="276.5,-38 73.5,-38 73.5,0 276.5,0 276.5,-38"/>
<text text-anchor="middle" x="175" y="-22.8" font-family="Times,serif" font-size="14.00">ID &#45; kb:activity3</text>
<text text-anchor="middle" x="175" y="-7.8" font-family="Times,serif" font-size="14.00">(..., 2020&#45;01&#45;02T21:00:02+00:00]</text>
</a>
</g>
</g>
<!-- _526944cfe3743b492c3f7751131a98aa3eb5bc97b4085097a36a0eda13b85b9d&#45;&gt;_1dc69e0ebb51673345ae966d7c1ed38f939e9f2a3eb4c3753722e4a4aab66fb1 -->
<g id="edge2" class="edge">
<title>_526944cfe3743b492c3f7751131a98aa3eb5bc97b4085097a36a0eda13b85b9d&#45;&gt;_1dc69e0ebb51673345ae966d7c1ed38f939e9f2a3eb4c3753722e4a4aab66fb1</title>
<path fill="none" stroke="#0000cd" d="M175,-38.42C175,-48.84 175,-62.12 175,-73.91"/>
<polygon fill="#0000cd" stroke="#0000cd" points="171.5,-73.63 175,-83.63 178.5,-73.63 171.5,-73.63"/>
<text text-anchor="middle" x="207.5" y="-59" font-family="Times,serif" font-size="10.00">wasInformedBy</text>
</g>
</g>
</svg>
