<?xml version="1.0" encoding="UTF-8" standalone="no"?>
<!DOCTYPE svg PUBLIC "-//W3C//DTD SVG 1.1//EN"
 "http://www.w3.org/Graphics/SVG/1.1/DTD/svg11.dtd">
<!-- Generated by graphviz version 12.2.1 (20241206.2353)
 -->
<!-- Title: PROV&#45;O render Pages: 1 -->
<svg width="667pt" height="282pt"
 viewBox="0.00 0.00 667.05 282.20" xmlns="http://www.w3.org/2000/svg" xmlns:xlink="http://www.w3.org/1999/xlink">
<g id="graph0" class="graph" transform="scale(1 1) rotate(0) translate(4 278.2)">
<title>PROV&#45;O render</title>
<polygon fill="white" stroke="none" points="-4,4 -4,-278.2 663.05,-278.2 663.05,4 -4,4"/>
<!-- _681177370bfbced26b33a112314a5d682d1a4ad432a26a5335c8f87b012318ee -->
<g id="node1" class="node">
<title>_681177370bfbced26b33a112314a5d682d1a4ad432a26a5335c8f87b012318ee</title>
<g id="a_node1"><a xlink:title="ID &#45; urn:example:Action&#45;417af923&#45;6ff4&#45;48da&#45;b7a7&#45;177cb5f3d6f3">
<polygon fill="#9fb1fc" stroke="#0000ff" points="320.5,-157.6 0,-157.6 0,-116.6 320.5,-116.6 320.5,-157.6"/>
<text text-anchor="middle" x="160.25" y="-140.3" font-family="Times,serif" font-size="14.00">ID &#45; kb:Action&#45;417af923&#45;6ff4&#45;48da&#45;b7a7&#45;177cb5f3d6f3</text>
<text text-anchor="middle" x="160.25" y="-123.8" font-family="Times,serif" font-size="14.00">[2020&#45;01&#45;02T04:00:00+00:00, ...)</text>
</a>
</g>
</g>
<!-- _ed3d969574bef218f0ac14e36ffe14c3b8c54379c9e704e7b5b1d8eb48161d6b -->
<g id="node7" class="node">
<title>_ed3d969574bef218f0ac14e36ffe14c3b8c54379c9e704e7b5b1d8eb48161d6b</title>
<g id="a_node7"><a xlink:title="ID &#45; urn:example:Start&#45;adfc2e9d&#45;7cbc&#45;52a5&#45;abb6&#45;17ffec3657cc&#10;&#10;2020&#45;01&#45;02T04:00:00+00:00&#10;&#10;Start of urn:example:Action&#45;417af923&#45;6ff4&#45;48da&#45;b7a7&#45;177cb5f3d6f3">
<ellipse fill="lightgray" stroke="dimgray" cx="269.25" cy="-214.1" rx="1.8" ry="1.8"/>
</a>
</g>
</g>
<!-- _681177370bfbced26b33a112314a5d682d1a4ad432a26a5335c8f87b012318ee&#45;&gt;_ed3d969574bef218f0ac14e36ffe14c3b8c54379c9e704e7b5b1d8eb48161d6b -->
<g id="edge7" class="edge">
<title>_681177370bfbced26b33a112314a5d682d1a4ad432a26a5335c8f87b012318ee&#45;&gt;_ed3d969574bef218f0ac14e36ffe14c3b8c54379c9e704e7b5b1d8eb48161d6b</title>
<path fill="none" stroke="dimgray" stroke-dasharray="1,5" d="M189.17,-158C215.01,-175.78 250.76,-200.38 264.02,-209.5"/>
<polygon fill="dimgray" stroke="dimgray" points="270.05,-207.58 264.38,-215.82 262.74,-214.69 268.41,-206.45 270.05,-207.58"/>
<polyline fill="none" stroke="dimgray" points="268.04,-212.27 263.92,-209.43"/>
</g>
<!-- _936610e65ec0551309349b62f71f72404694da793d404b2a264828126d4bd276 -->
<g id="node2" class="node">
<title>_936610e65ec0551309349b62f71f72404694da793d404b2a264828126d4bd276</title>
<g id="a_node2"><a xlink:title="ID &#45; urn:example:Action&#45;60dddd50&#45;07ac&#45;4177&#45;930d&#45;7954c56f49b9">
<polygon fill="#9fb1fc" stroke="#0000ff" points="421.75,-80.6 72.75,-80.6 72.75,-39.6 421.75,-39.6 421.75,-80.6"/>
<text text-anchor="middle" x="247.25" y="-63.3" font-family="Times,serif" font-size="14.00">ID &#45; kb:Action&#45;60dddd50&#45;07ac&#45;4177&#45;930d&#45;7954c56f49b9</text>
<text text-anchor="middle" x="247.25" y="-46.8" font-family="Times,serif" font-size="14.00">[2020&#45;01&#45;02T05:00:00+00:00, 2020&#45;01&#45;02T08:00:00+00:00]</text>
</a>
</g>
</g>
<!-- _1f2bbec1d6ac44143a5541f6b7cca4163349ce582e700b518dd3d8bef3580196 -->
<g id="node8" class="node">
<title>_1f2bbec1d6ac44143a5541f6b7cca4163349ce582e700b518dd3d8bef3580196</title>
<g id="a_node8"><a xlink:title="ID &#45; urn:example:Start&#45;c99941dc&#45;5be0&#45;5095&#45;a74d&#45;f85359f6c869&#10;&#10;2020&#45;01&#45;02T05:00:00+00:00&#10;&#10;Start of urn:example:Action&#45;60dddd50&#45;07ac&#45;4177&#45;930d&#45;7954c56f49b9">
<ellipse fill="lightgray" stroke="dimgray" cx="340.25" cy="-137.1" rx="1.8" ry="1.8"/>
</a>
</g>
</g>
<!-- _936610e65ec0551309349b62f71f72404694da793d404b2a264828126d4bd276&#45;&gt;_1f2bbec1d6ac44143a5541f6b7cca4163349ce582e700b518dd3d8bef3580196 -->
<g id="edge10" class="edge">
<title>_936610e65ec0551309349b62f71f72404694da793d404b2a264828126d4bd276&#45;&gt;_1f2bbec1d6ac44143a5541f6b7cca4163349ce582e700b518dd3d8bef3580196</title>
<path fill="none" stroke="dimgray" stroke-dasharray="1,5" d="M284.34,-81.1C299.49,-90.49 316.43,-102.7 329.25,-116.6 333.02,-120.69 336.01,-126.29 337.91,-130.44"/>
<polygon fill="dimgray" stroke="dimgray" points="344.03,-132.06 334.82,-135.96 334.04,-134.11 343.25,-130.21 344.03,-132.06"/>
<polyline fill="none" stroke="dimgray" points="339.81,-134.93 337.86,-130.32"/>
</g>
<!-- _cbccc8bf5743bca7a80ff0e3226563ef383df97cc032252160f22a29130607a2 -->
<g id="node3" class="node">
<title>_cbccc8bf5743bca7a80ff0e3226563ef383df97cc032252160f22a29130607a2</title>
<g id="a_node3"><a xlink:title="ID &#45; urn:example:Action&#45;e9f1edc9&#45;4e0c&#45;43c3&#45;a1c4&#45;891143e3fa86">
<polygon fill="#9fb1fc" stroke="#0000ff" points="637.75,-234.6 288.75,-234.6 288.75,-193.6 637.75,-193.6 637.75,-234.6"/>
<text text-anchor="middle" x="463.25" y="-217.3" font-family="Times,serif" font-size="14.00">ID &#45; kb:Action&#45;e9f1edc9&#45;4e0c&#45;43c3&#45;a1c4&#45;891143e3fa86</text>
<text text-anchor="middle" x="463.25" y="-200.8" font-family="Times,serif" font-size="14.00">[2020&#45;01&#45;02T03:00:00+00:00, 2020&#45;01&#45;02T06:00:00+00:00]</text>
</a>
</g>
</g>
<!-- _c721d26c1cf9d9802944628feb5ddf470d8781f440271821a0c12f5820df5869 -->
<g id="node6" class="node">
<title>_c721d26c1cf9d9802944628feb5ddf470d8781f440271821a0c12f5820df5869</title>
<g id="a_node6"><a xlink:title="ID &#45; urn:example:Start&#45;30a5ef5a&#45;e33f&#45;5a68&#45;8ce1&#45;946dfb30eb37&#10;&#10;2020&#45;01&#45;02T03:00:00+00:00&#10;&#10;Start of urn:example:Action&#45;e9f1edc9&#45;4e0c&#45;43c3&#45;a1c4&#45;891143e3fa86">
<ellipse fill="lightgray" stroke="dimgray" cx="463.25" cy="-272.4" rx="1.8" ry="1.8"/>
</a>
</g>
</g>
<!-- _cbccc8bf5743bca7a80ff0e3226563ef383df97cc032252160f22a29130607a2&#45;&gt;_c721d26c1cf9d9802944628feb5ddf470d8781f440271821a0c12f5820df5869 -->
<g id="edge4" class="edge">
<title>_cbccc8bf5743bca7a80ff0e3226563ef383df97cc032252160f22a29130607a2&#45;&gt;_c721d26c1cf9d9802944628feb5ddf470d8781f440271821a0c12f5820df5869</title>
<path fill="none" stroke="dimgray" stroke-dasharray="1,5" d="M463.25,-234.79C463.25,-245.69 463.25,-258.46 463.25,-265.67"/>
<polygon fill="dimgray" stroke="dimgray" points="468.25,-269.26 458.25,-269.26 458.25,-267.26 468.25,-267.26 468.25,-269.26"/>
<polyline fill="none" stroke="dimgray" points="463.25,-270.26 463.25,-265.26"/>
</g>
<!-- _2836c2cf5931b13afbaabc2f580ff228b46f9ac84427a45e4c5c18ab6da4f229 -->
<g id="node4" class="node">
<title>_2836c2cf5931b13afbaabc2f580ff228b46f9ac84427a45e4c5c18ab6da4f229</title>
<g id="a_node4"><a xlink:title="ID &#45; urn:example:End&#45;50346631&#45;166c&#45;5588&#45;b8ec&#45;170c9037a028&#10;&#10;2020&#45;01&#45;02T06:00:00+00:00&#10;&#10;End of urn:example:Action&#45;e9f1edc9&#45;4e0c&#45;43c3&#45;a1c4&#45;891143e3fa86">
<ellipse fill="lightgray" stroke="dimgray" cx="463.25" cy="-60.1" rx="1.8" ry="1.8"/>
</a>
</g>
</g>
<!-- _2836c2cf5931b13afbaabc2f580ff228b46f9ac84427a45e4c5c18ab6da4f229&#45;&gt;_cbccc8bf5743bca7a80ff0e3226563ef383df97cc032252160f22a29130607a2 -->
<g id="edge2" class="edge">
<title>_2836c2cf5931b13afbaabc2f580ff228b46f9ac84427a45e4c5c18ab6da4f229&#45;&gt;_cbccc8bf5743bca7a80ff0e3226563ef383df97cc032252160f22a29130607a2</title>
<path fill="none" stroke="dimgray" stroke-dasharray="1,5" d="M463.25,-66.93C463.25,-87.62 463.25,-158.18 463.25,-193.14"/>
<polygon fill="dimgray" stroke="dimgray" points="458.25,-63.07 468.25,-63.07 468.25,-65.07 458.25,-65.07 458.25,-63.07"/>
<polyline fill="none" stroke="dimgray" points="463.25,-62.07 463.25,-67.07"/>
</g>
<!-- _2836c2cf5931b13afbaabc2f580ff228b46f9ac84427a45e4c5c18ab6da4f229&#45;&gt;_1f2bbec1d6ac44143a5541f6b7cca4163349ce582e700b518dd3d8bef3580196 -->
<g id="edge11" class="edge">
<title>_2836c2cf5931b13afbaabc2f580ff228b46f9ac84427a45e4c5c18ab6da4f229&#45;&gt;_1f2bbec1d6ac44143a5541f6b7cca4163349ce582e700b518dd3d8bef3580196</title>
<path fill="none" stroke="dimgray" stroke-dasharray="1,5" d="M462.89,-62.35C461.83,-65.77 458.43,-75.39 452.25,-80.6 415.79,-111.29 387.71,-85.91 351.25,-116.6 348.74,-118.72 346.69,-121.56 345.06,-124.42"/>
<polygon fill="dimgray" stroke="dimgray" points="341.91,-122.89 341.21,-133.46 348.35,-125.63 341.91,-122.89"/>
</g>
<!-- _ebd2d0c7deb947fc7e764b4590c54ab059b05801f8b9736caf1664192379d78f -->
<g id="node9" class="node">
<title>_ebd2d0c7deb947fc7e764b4590c54ab059b05801f8b9736caf1664192379d78f</title>
<g id="a_node9"><a xlink:title="ID &#45; urn:example:Usage&#45;4624f76f&#45;9b3e&#45;5d12&#45;86cd&#45;4ca7478378e1&#10;&#10;Usage of http://www.w3.org/ns/prov#EmptyCollection in urn:example:Action&#45;e9f1edc9&#45;4e0c&#45;43c3&#45;a1c4&#45;891143e3fa86">
<ellipse fill="lightgray" stroke="dimgray" cx="657.25" cy="-214.1" rx="1.8" ry="1.8"/>
</a>
</g>
</g>
<!-- _2836c2cf5931b13afbaabc2f580ff228b46f9ac84427a45e4c5c18ab6da4f229&#45;&gt;_ebd2d0c7deb947fc7e764b4590c54ab059b05801f8b9736caf1664192379d78f -->
<g id="edge13" class="edge">
<title>_2836c2cf5931b13afbaabc2f580ff228b46f9ac84427a45e4c5c18ab6da4f229&#45;&gt;_ebd2d0c7deb947fc7e764b4590c54ab059b05801f8b9736caf1664192379d78f</title>
<path fill="none" stroke="dimgray" stroke-dasharray="1,5" d="M464.59,-61.75C477.83,-68.19 585.65,-121.97 647.25,-193.6 649.27,-195.94 651.01,-198.76 652.45,-201.52"/>
<polygon fill="dimgray" stroke="dimgray" points="649.15,-202.7 656.28,-210.54 655.59,-199.97 649.15,-202.7"/>
</g>
<!-- _912a72d841c318eb5b4875a1e5355a418bde5a06ed6aef7b34cfcfd841e76fef -->
<g id="node5" class="node">
<title>_912a72d841c318eb5b4875a1e5355a418bde5a06ed6aef7b34cfcfd841e76fef</title>
<g id="a_node5"><a xlink:title="ID &#45; urn:example:End&#45;cab73892&#45;7636&#45;54b4&#45;afad&#45;bc815a6578ae&#10;&#10;2020&#45;01&#45;02T08:00:00+00:00&#10;&#10;End of urn:example:Action&#45;60dddd50&#45;07ac&#45;4177&#45;930d&#45;7954c56f49b9">
<ellipse fill="lightgray" stroke="dimgray" cx="441.25" cy="-1.8" rx="1.8" ry="1.8"/>
</a>
</g>
</g>
<!-- _912a72d841c318eb5b4875a1e5355a418bde5a06ed6aef7b34cfcfd841e76fef&#45;&gt;_936610e65ec0551309349b62f71f72404694da793d404b2a264828126d4bd276 -->
<g id="edge1" class="edge">
<title>_912a72d841c318eb5b4875a1e5355a418bde5a06ed6aef7b34cfcfd841e76fef&#45;&gt;_936610e65ec0551309349b62f71f72404694da793d404b2a264828126d4bd276</title>
<path fill="none" stroke="dimgray" stroke-dasharray="1,5" d="M435.21,-4.55C417.14,-9.8 361.92,-25.82 315.98,-39.15"/>
<polygon fill="dimgray" stroke="dimgray" points="437.22,1.24 440.01,-8.37 438.09,-8.92 435.3,0.68 437.22,1.24"/>
<polyline fill="none" stroke="dimgray" points="439.57,-3.29 434.77,-4.68"/>
</g>
<!-- _912a72d841c318eb5b4875a1e5355a418bde5a06ed6aef7b34cfcfd841e76fef&#45;&gt;_2836c2cf5931b13afbaabc2f580ff228b46f9ac84427a45e4c5c18ab6da4f229 -->
<g id="edge3" class="edge">
<title>_912a72d841c318eb5b4875a1e5355a418bde5a06ed6aef7b34cfcfd841e76fef&#45;&gt;_2836c2cf5931b13afbaabc2f580ff228b46f9ac84427a45e4c5c18ab6da4f229</title>
<path fill="none" stroke="dimgray" stroke-dasharray="1,5" d="M441.63,-3.78C443.62,-8.86 452.89,-32.59 458.63,-47.27"/>
<polygon fill="dimgray" stroke="dimgray" points="455.33,-48.46 462.23,-56.5 461.85,-45.91 455.33,-48.46"/>
</g>
<!-- _70619abae0dd99551ba81004d114bf94b86c8252b0e82d6b7b570ee5d244115b -->
<g id="node11" class="node">
<title>_70619abae0dd99551ba81004d114bf94b86c8252b0e82d6b7b570ee5d244115b</title>
<g id="a_node11"><a xlink:title="ID &#45; urn:example:Usage&#45;e69707d1&#45;9c7b&#45;5b1a&#45;9801&#45;8e4e3dc56dbb&#10;&#10;Usage of http://www.w3.org/ns/prov#EmptyCollection in urn:example:Action&#45;60dddd50&#45;07ac&#45;4177&#45;930d&#45;7954c56f49b9">
<ellipse fill="lightgray" stroke="dimgray" cx="441.25" cy="-60.1" rx="1.8" ry="1.8"/>
</a>
</g>
</g>
<!-- _912a72d841c318eb5b4875a1e5355a418bde5a06ed6aef7b34cfcfd841e76fef&#45;&gt;_70619abae0dd99551ba81004d114bf94b86c8252b0e82d6b7b570ee5d244115b -->
<g id="edge14" class="edge">
<title>_912a72d841c318eb5b4875a1e5355a418bde5a06ed6aef7b34cfcfd841e76fef&#45;&gt;_70619abae0dd99551ba81004d114bf94b86c8252b0e82d6b7b570ee5d244115b</title>
<path fill="none" stroke="dimgray" stroke-dasharray="1,5" d="M441.25,-3.78C441.25,-8.81 441.25,-32.1 441.25,-46.81"/>
<polygon fill="dimgray" stroke="dimgray" points="437.75,-46.4 441.25,-56.4 444.75,-46.4 437.75,-46.4"/>
</g>
<!-- _ed3d969574bef218f0ac14e36ffe14c3b8c54379c9e704e7b5b1d8eb48161d6b&#45;&gt;_c721d26c1cf9d9802944628feb5ddf470d8781f440271821a0c12f5820df5869 -->
<g id="edge5" class="edge">
<title>_ed3d969574bef218f0ac14e36ffe14c3b8c54379c9e704e7b5b1d8eb48161d6b&#45;&gt;_c721d26c1cf9d9802944628feb5ddf470d8781f440271821a0c12f5820df5869</title>
<path fill="none" stroke="dimgray" stroke-dasharray="1,5" d="M269.47,-216.02C270.3,-219.18 273.46,-229.67 280.25,-234.6 307.79,-254.59 413.29,-266.55 450.31,-270.2"/>
<polygon fill="dimgray" stroke="dimgray" points="449.77,-273.66 460.06,-271.11 450.43,-266.69 449.77,-273.66"/>
</g>
<!-- _1f2bbec1d6ac44143a5541f6b7cca4163349ce582e700b518dd3d8bef3580196&#45;&gt;_ed3d969574bef218f0ac14e36ffe14c3b8c54379c9e704e7b5b1d8eb48161d6b -->
<g id="edge8" class="edge">
<title>_1f2bbec1d6ac44143a5541f6b7cca4163349ce582e700b518dd3d8bef3580196&#45;&gt;_ed3d969574bef218f0ac14e36ffe14c3b8c54379c9e704e7b5b1d8eb48161d6b</title>
<path fill="none" stroke="dimgray" stroke-dasharray="1,5" d="M339.8,-139.26C338.52,-142.46 334.61,-151.55 329.25,-157.6 311.32,-177.82 298.18,-173.38 280.25,-193.6 278.07,-196.06 276.13,-199.02 274.51,-201.88"/>
<polygon fill="dimgray" stroke="dimgray" points="271.51,-200.04 270.35,-210.57 277.83,-203.06 271.51,-200.04"/>
</g>
<!-- _ebd2d0c7deb947fc7e764b4590c54ab059b05801f8b9736caf1664192379d78f&#45;&gt;_c721d26c1cf9d9802944628feb5ddf470d8781f440271821a0c12f5820df5869 -->
<g id="edge6" class="edge">
<title>_ebd2d0c7deb947fc7e764b4590c54ab059b05801f8b9736caf1664192379d78f&#45;&gt;_c721d26c1cf9d9802944628feb5ddf470d8781f440271821a0c12f5820df5869</title>
<path fill="none" stroke="dimgray" stroke-dasharray="1,5" d="M657.07,-216.02C656.42,-219.17 653.81,-229.65 647.25,-234.6 619.96,-255.22 513.63,-266.77 476.29,-270.26"/>
<polygon fill="dimgray" stroke="dimgray" points="476.11,-266.76 466.46,-271.13 476.73,-273.74 476.11,-266.76"/>
</g>
<!-- _c9c2c9e3cfe223c13299c48f9bbb85a8f73e8688fb4d0e45ce307cc29ae3ca79 -->
<g id="node10" class="node">
<title>_c9c2c9e3cfe223c13299c48f9bbb85a8f73e8688fb4d0e45ce307cc29ae3ca79</title>
<g id="a_node10"><a xlink:title="ID &#45; urn:example:Usage&#45;6078c8f2&#45;d117&#45;534a&#45;a690&#45;599d836f6093&#10;&#10;Usage of http://www.w3.org/ns/prov#EmptyCollection in urn:example:Action&#45;417af923&#45;6ff4&#45;48da&#45;b7a7&#45;177cb5f3d6f3">
<ellipse fill="lightgray" stroke="dimgray" cx="362.25" cy="-137.1" rx="1.8" ry="1.8"/>
</a>
</g>
</g>
<!-- _c9c2c9e3cfe223c13299c48f9bbb85a8f73e8688fb4d0e45ce307cc29ae3ca79&#45;&gt;_ed3d969574bef218f0ac14e36ffe14c3b8c54379c9e704e7b5b1d8eb48161d6b -->
<g id="edge9" class="edge">
<title>_c9c2c9e3cfe223c13299c48f9bbb85a8f73e8688fb4d0e45ce307cc29ae3ca79&#45;&gt;_ed3d969574bef218f0ac14e36ffe14c3b8c54379c9e704e7b5b1d8eb48161d6b</title>
<path fill="none" stroke="dimgray" stroke-dasharray="1,5" d="M361.85,-139.31C360.7,-142.63 357.09,-152.01 351.25,-157.6 325.68,-182.06 305.82,-169.14 280.25,-193.6 277.88,-195.87 275.87,-198.77 274.25,-201.63"/>
<polygon fill="dimgray" stroke="dimgray" points="271.17,-199.95 270.27,-210.51 277.55,-202.82 271.17,-199.95"/>
</g>
<!-- _70619abae0dd99551ba81004d114bf94b86c8252b0e82d6b7b570ee5d244115b&#45;&gt;_1f2bbec1d6ac44143a5541f6b7cca4163349ce582e700b518dd3d8bef3580196 -->
<g id="edge12" class="edge">
<title>_70619abae0dd99551ba81004d114bf94b86c8252b0e82d6b7b570ee5d244115b&#45;&gt;_1f2bbec1d6ac44143a5541f6b7cca4163349ce582e700b518dd3d8bef3580196</title>
<path fill="none" stroke="dimgray" stroke-dasharray="1,5" d="M440.93,-62.32C440,-65.68 436.99,-75.15 431.25,-80.6 402.99,-107.46 380.04,-90.31 351.25,-116.6 348.82,-118.81 346.8,-121.69 345.18,-124.55"/>
<polygon fill="dimgray" stroke="dimgray" points="342.07,-122.93 341.25,-133.49 348.48,-125.75 342.07,-122.93"/>
</g>
</g>
</svg>
