<?xml version="1.0" encoding="UTF-8" standalone="no"?>
<!DOCTYPE svg PUBLIC "-//W3C//DTD SVG 1.1//EN"
 "http://www.w3.org/Graphics/SVG/1.1/DTD/svg11.dtd">
<!-- Generated by graphviz version 12.2.1 (20241206.2353)
 -->
<!-- Title: PROV&#45;O render Pages: 1 -->
<svg width="254pt" height="137pt"
 viewBox="0.00 0.00 253.88 136.60" xmlns="http://www.w3.org/2000/svg" xmlns:xlink="http://www.w3.org/1999/xlink">
<g id="graph0" class="graph" transform="scale(1 1) rotate(0) translate(4 132.6)">
<title>PROV&#45;O render</title>
<polygon fill="white" stroke="none" points="-4,4 -4,-132.6 249.88,-132.6 249.88,4 -4,4"/>
<!-- _14654b96946c1cb41b691fb9ca10f36fbcc79748d996b5470b31f22fef410695 -->
<g id="node1" class="node">
<title>_14654b96946c1cb41b691fb9ca10f36fbcc79748d996b5470b31f22fef410695</title>
<g id="a_node1"><a xlink:title="ID &#45; urn:example:Activity&#45;1">
<polygon fill="#9fb1fc" stroke="#0000ff" points="115,-73 0,-73 0,-16 115,-16 115,-73"/>
<text text-anchor="middle" x="57.5" y="-55.7" font-family="Times,serif" font-size="14.00">ID &#45; kb:Activity&#45;1</text>
<text text-anchor="middle" x="57.5" y="-23.2" font-family="Times,serif" font-size="14.00">A prov:Activity.</text>
</a>
</g>
</g>
<!-- _e3b7da7c43c7e9a599605efaabf7f6b38f1e90afcfe77cac1c50c1dee66fa077 -->
<g id="node3" class="node">
<title>_e3b7da7c43c7e9a599605efaabf7f6b38f1e90afcfe77cac1c50c1dee66fa077</title>
<g id="a_node3"><a xlink:title="Start of urn:example:Activity&#45;1">
<ellipse fill="lightgray" stroke="dimgray" cx="57.5" cy="-126.8" rx="1.8" ry="1.8"/>
</a>
</g>
</g>
<!-- _14654b96946c1cb41b691fb9ca10f36fbcc79748d996b5470b31f22fef410695&#45;&gt;_e3b7da7c43c7e9a599605efaabf7f6b38f1e90afcfe77cac1c50c1dee66fa077 -->
<g id="edge2" class="edge">
<title>_14654b96946c1cb41b691fb9ca10f36fbcc79748d996b5470b31f22fef410695&#45;&gt;_e3b7da7c43c7e9a599605efaabf7f6b38f1e90afcfe77cac1c50c1dee66fa077</title>
<path fill="none" stroke="dimgray" stroke-dasharray="1,5" d="M57.5,-73.13C57.5,-90.24 57.5,-110.71 57.5,-120.31"/>
<polygon fill="dimgray" stroke="dimgray" points="62.5,-124.05 52.5,-124.05 52.5,-122.05 62.5,-122.05 62.5,-124.05"/>
<polyline fill="none" stroke="dimgray" points="57.5,-125.05 57.5,-120.05"/>
</g>
<!-- _217bffed872648b6837690e183dc681fb19660803a4d6ef30e16df31f2da12d0 -->
<g id="node2" class="node">
<title>_217bffed872648b6837690e183dc681fb19660803a4d6ef30e16df31f2da12d0</title>
<g id="a_node2"><a xlink:title="Beginning of urn:example:Interval&#45;1">
<ellipse fill="lightgray" stroke="dimgray" cx="189.5" cy="-126.8" rx="1.8" ry="1.8"/>
</a>
</g>
</g>
<!-- _09b7888078e777ee3357bafe8a5d907f79599f52ae04195842dd7a36fcef5657 -->
<g id="node4" class="node">
<title>_09b7888078e777ee3357bafe8a5d907f79599f52ae04195842dd7a36fcef5657</title>
<g id="a_node4"><a xlink:title="ID &#45; urn:example:Interval&#45;1">
<polygon fill="none" stroke="dimgray" stroke-dasharray="1,5" points="245.88,-89 133.12,-89 133.12,0 245.88,0 245.88,-89"/>
<text text-anchor="middle" x="189.5" y="-71.7" font-family="Times,serif" font-size="14.00">ID &#45; kb:Interval&#45;1</text>
<text text-anchor="middle" x="189.5" y="-7.2" font-family="Times,serif" font-size="14.00">A time:Interval.</text>
</a>
</g>
</g>
<!-- _09b7888078e777ee3357bafe8a5d907f79599f52ae04195842dd7a36fcef5657&#45;&gt;_217bffed872648b6837690e183dc681fb19660803a4d6ef30e16df31f2da12d0 -->
<g id="edge1" class="edge">
<title>_09b7888078e777ee3357bafe8a5d907f79599f52ae04195842dd7a36fcef5657&#45;&gt;_217bffed872648b6837690e183dc681fb19660803a4d6ef30e16df31f2da12d0</title>
<path fill="none" stroke="dimgray" stroke-dasharray="1,5" d="M189.5,-89.41C189.5,-101.52 189.5,-113.17 189.5,-119.9"/>
<polygon fill="dimgray" stroke="dimgray" points="194.5,-123.57 184.5,-123.57 184.5,-121.57 194.5,-121.57 194.5,-123.57"/>
<polyline fill="none" stroke="dimgray" points="189.5,-124.57 189.5,-119.57"/>
</g>
</g>
</svg>
