<?xml version="1.0" encoding="UTF-8" standalone="no"?>
<!DOCTYPE svg PUBLIC "-//W3C//DTD SVG 1.1//EN"
 "http://www.w3.org/Graphics/SVG/1.1/DTD/svg11.dtd">
<!-- Generated by graphviz version 12.2.1 (20241206.2353)
 -->
<!-- Title: PROV&#45;O render Pages: 1 -->
<svg width="620pt" height="433pt"
 viewBox="0.00 0.00 620.35 432.96" xmlns="http://www.w3.org/2000/svg" xmlns:xlink="http://www.w3.org/1999/xlink">
<g id="graph0" class="graph" transform="scale(1 1) rotate(0) translate(4 428.96)">
<title>PROV&#45;O render</title>
<polygon fill="white" stroke="none" points="-4,4 -4,-428.96 616.35,-428.96 616.35,4 -4,4"/>
<!-- _7a2198a44f578179dc8e96c483e423346bf212bb366a1d7fc5cef491c825bb70 -->
<g id="node1" class="node">
<title>_7a2198a44f578179dc8e96c483e423346bf212bb366a1d7fc5cef491c825bb70</title>
<g id="a_node1"><a xlink:title="ID &#45; urn:example:Action&#45;1">
<polygon fill="#9fb1fc" stroke="#0000ff" points="612.35,-384.36 263.35,-384.36 263.35,-294.36 612.35,-294.36 612.35,-384.36"/>
<text text-anchor="middle" x="437.85" y="-367.06" font-family="Times,serif" font-size="14.00">ID &#45; kb:Action&#45;1</text>
<text text-anchor="middle" x="437.85" y="-350.56" font-family="Times,serif" font-size="14.00">[2020&#45;01&#45;02T12:00:30+00:00, 2020&#45;01&#45;02T12:00:30+00:00]</text>
<text text-anchor="middle" x="437.85" y="-318.06" font-family="Times,serif" font-size="14.00">Activity known to create and delete a temporary file, </text>
<text text-anchor="middle" x="437.85" y="-301.56" font-family="Times,serif" font-size="14.00">File&#45;1, and to create File&#45;2.</text>
</a>
</g>
</g>
<!-- _514c766e8ad290ece0d24234da5a9b8eb7670f9ce283ceb205b50140adb3e499 -->
<g id="node10" class="node">
<title>_514c766e8ad290ece0d24234da5a9b8eb7670f9ce283ceb205b50140adb3e499</title>
<g id="a_node10"><a xlink:title="ID &#45; urn:example:Start&#45;41c7fd66&#45;75d7&#45;55b5&#45;9e06&#45;ba2b050a92f6&#10;&#10;2020&#45;01&#45;02T12:00:30+00:00&#10;&#10;Start of urn:example:Action&#45;1">
<ellipse fill="lightgray" stroke="dimgray" cx="183.85" cy="-423.16" rx="1.8" ry="1.8"/>
</a>
</g>
</g>
<!-- _7a2198a44f578179dc8e96c483e423346bf212bb366a1d7fc5cef491c825bb70&#45;&gt;_514c766e8ad290ece0d24234da5a9b8eb7670f9ce283ceb205b50140adb3e499 -->
<g id="edge18" class="edge">
<title>_7a2198a44f578179dc8e96c483e423346bf212bb366a1d7fc5cef491c825bb70&#45;&gt;_514c766e8ad290ece0d24234da5a9b8eb7670f9ce283ceb205b50140adb3e499</title>
<path fill="none" stroke="dimgray" stroke-dasharray="1,5" d="M306.66,-384.85C287.32,-391.19 267.6,-397.53 248.85,-403.36 227.46,-410.02 201.86,-417.19 190.2,-420.42"/>
<polygon fill="dimgray" stroke="dimgray" points="187.76,-426.27 185.11,-416.63 187.03,-416.1 189.69,-425.74 187.76,-426.27"/>
<polyline fill="none" stroke="dimgray" points="185.47,-421.72 190.29,-420.39"/>
</g>
<!-- _9640acc41515017ae2496fbc88f8afacf04fb0f88982ca5cc407bff57a578d46 -->
<g id="node2" class="node">
<title>_9640acc41515017ae2496fbc88f8afacf04fb0f88982ca5cc407bff57a578d46</title>
<g id="a_node2"><a xlink:title="ID &#45; urn:example:File&#45;1">
<ellipse fill="#fff68f" stroke="#808080" cx="240.85" cy="-206.81" rx="69.65" ry="40.31"/>
<text text-anchor="middle" x="240.85" y="-218.01" font-family="Times,serif" font-size="14.00">ID &#45; kb:File&#45;1</text>
<text text-anchor="middle" x="240.85" y="-185.51" font-family="Times,serif" font-size="14.00">Temporary file</text>
</a>
</g>
</g>
<!-- _9640acc41515017ae2496fbc88f8afacf04fb0f88982ca5cc407bff57a578d46&#45;&gt;_7a2198a44f578179dc8e96c483e423346bf212bb366a1d7fc5cef491c825bb70 -->
<g id="edge1" class="edge">
<title>_9640acc41515017ae2496fbc88f8afacf04fb0f88982ca5cc407bff57a578d46&#45;&gt;_7a2198a44f578179dc8e96c483e423346bf212bb366a1d7fc5cef491c825bb70</title>
<path fill="none" stroke="darkgreen" d="M250.69,-247.12C254.92,-257.71 260.85,-268.42 269.1,-276.36 273.22,-280.32 277.6,-284.02 282.2,-287.5"/>
<polygon fill="darkgreen" stroke="darkgreen" points="279.86,-290.13 290.05,-293.02 283.89,-284.4 279.86,-290.13"/>
<text text-anchor="middle" x="303.98" y="-266.86" font-family="Times,serif" font-size="10.00" fill="darkgreen">wasGeneratedBy</text>
</g>
<!-- _dc2c3059d5723d253760829c5b4f905b22224ac4f7d513addb4f7b86c7836acc -->
<g id="node6" class="node">
<title>_dc2c3059d5723d253760829c5b4f905b22224ac4f7d513addb4f7b86c7836acc</title>
<g id="a_node6"><a xlink:title="ID &#45; urn:example:Generation&#45;1&#10;&#10;2020&#45;01&#45;02T12:00:30.1234Z&#10;&#10;Generation of urn:example:File&#45;1">
<ellipse fill="lightgray" stroke="dimgray" cx="146.85" cy="-339.36" rx="1.8" ry="1.8"/>
</a>
</g>
</g>
<!-- _9640acc41515017ae2496fbc88f8afacf04fb0f88982ca5cc407bff57a578d46&#45;&gt;_dc2c3059d5723d253760829c5b4f905b22224ac4f7d513addb4f7b86c7836acc -->
<g id="edge9" class="edge">
<title>_9640acc41515017ae2496fbc88f8afacf04fb0f88982ca5cc407bff57a578d46&#45;&gt;_dc2c3059d5723d253760829c5b4f905b22224ac4f7d513addb4f7b86c7836acc</title>
<path fill="none" stroke="dimgray" stroke-dasharray="1,5" d="M214.42,-244.52C191.59,-276.22 160.7,-319.13 150.38,-333.47"/>
<polygon fill="dimgray" stroke="dimgray" points="152.2,-339.49 144.08,-333.65 145.25,-332.03 153.37,-337.87 152.2,-339.49"/>
<polyline fill="none" stroke="dimgray" points="147.56,-337.38 150.48,-333.33"/>
</g>
<!-- _243b5d196663b32ca6eedf15ee2f5276f2eec4f8526eba892e66e8e8d1969373 -->
<g id="node3" class="node">
<title>_243b5d196663b32ca6eedf15ee2f5276f2eec4f8526eba892e66e8e8d1969373</title>
<g id="a_node3"><a xlink:title="ID &#45; urn:example:File&#45;2">
<ellipse fill="#fff68f" stroke="#808080" cx="295.85" cy="-101.25" rx="62.61" ry="18"/>
<text text-anchor="middle" x="295.85" y="-96.2" font-family="Times,serif" font-size="14.00">ID &#45; kb:File&#45;2</text>
</a>
</g>
</g>
<!-- _243b5d196663b32ca6eedf15ee2f5276f2eec4f8526eba892e66e8e8d1969373&#45;&gt;_7a2198a44f578179dc8e96c483e423346bf212bb366a1d7fc5cef491c825bb70 -->
<g id="edge2" class="edge">
<title>_243b5d196663b32ca6eedf15ee2f5276f2eec4f8526eba892e66e8e8d1969373&#45;&gt;_7a2198a44f578179dc8e96c483e423346bf212bb366a1d7fc5cef491c825bb70</title>
<path fill="none" stroke="darkgreen" d="M315.53,-118.59C321.52,-124.14 327.84,-130.62 332.85,-137.25 367.34,-182.87 396.48,-241.44 415.25,-283.59"/>
<polygon fill="darkgreen" stroke="darkgreen" points="411.96,-284.8 419.19,-292.55 418.37,-281.98 411.96,-284.8"/>
<text text-anchor="middle" x="432.38" y="-202.93" font-family="Times,serif" font-size="10.00" fill="darkgreen">wasGeneratedBy</text>
</g>
<!-- _243b5d196663b32ca6eedf15ee2f5276f2eec4f8526eba892e66e8e8d1969373&#45;&gt;_9640acc41515017ae2496fbc88f8afacf04fb0f88982ca5cc407bff57a578d46 -->
<g id="edge3" class="edge">
<title>_243b5d196663b32ca6eedf15ee2f5276f2eec4f8526eba892e66e8e8d1969373&#45;&gt;_9640acc41515017ae2496fbc88f8afacf04fb0f88982ca5cc407bff57a578d46</title>
<path fill="none" stroke="black" d="M277.54,-118.82C272.32,-124.28 266.99,-130.66 263.1,-137.25 259.72,-142.98 256.79,-149.29 254.26,-155.69"/>
<polygon fill="black" stroke="black" points="250.99,-154.43 250.89,-165.03 257.57,-156.81 250.99,-154.43"/>
<text text-anchor="middle" x="297.98" y="-139" font-family="Times,serif" font-size="10.00">wasDerivedFrom</text>
</g>
<!-- _a9f4db6f08a81e39998fabcaa4512886980dacb58450084db6489297d95be817 -->
<g id="node7" class="node">
<title>_a9f4db6f08a81e39998fabcaa4512886980dacb58450084db6489297d95be817</title>
<g id="a_node7"><a xlink:title="ID &#45; urn:example:Generation&#45;2&#10;&#10;2020&#45;01&#45;02T12:00:30.3456Z&#10;&#10;Generation of urn:example:File&#45;2">
<ellipse fill="lightgray" stroke="dimgray" cx="151.85" cy="-206.81" rx="1.8" ry="1.8"/>
</a>
</g>
</g>
<!-- _243b5d196663b32ca6eedf15ee2f5276f2eec4f8526eba892e66e8e8d1969373&#45;&gt;_a9f4db6f08a81e39998fabcaa4512886980dacb58450084db6489297d95be817 -->
<g id="edge13" class="edge">
<title>_243b5d196663b32ca6eedf15ee2f5276f2eec4f8526eba892e66e8e8d1969373&#45;&gt;_a9f4db6f08a81e39998fabcaa4512886980dacb58450084db6489297d95be817</title>
<path fill="none" stroke="dimgray" stroke-dasharray="1,5" d="M269.21,-117.78C252.46,-127.24 230.23,-139.25 209.85,-148.5 189.11,-157.92 177.06,-149.53 161.85,-166.5 153.47,-175.86 151.91,-191.28 151.74,-199.75"/>
<polygon fill="dimgray" stroke="dimgray" points="156.78,-203.62 146.78,-203.72 146.76,-201.72 156.76,-201.62 156.78,-203.62"/>
<polyline fill="none" stroke="dimgray" points="151.79,-204.67 151.74,-199.67"/>
</g>
<!-- _cfdab38f58c2769eab6e97ec8fe4ee2e3d00fd690bfde61e877e4b05c3709b2c -->
<g id="node4" class="node">
<title>_cfdab38f58c2769eab6e97ec8fe4ee2e3d00fd690bfde61e877e4b05c3709b2c</title>
<g id="a_node4"><a xlink:title="ID &#45; urn:example:ProvenanceRecord&#45;1">
<polygon fill="#cdc673" stroke="#808080" points="527.23,-36 524.23,-40 503.23,-40 500.23,-36 354.48,-36 354.48,0 527.23,0 527.23,-36"/>
<text text-anchor="middle" x="440.85" y="-12.95" font-family="Times,serif" font-size="14.00">ID &#45; kb:ProvenanceRecord&#45;1</text>
</a>
</g>
</g>
<!-- _cfdab38f58c2769eab6e97ec8fe4ee2e3d00fd690bfde61e877e4b05c3709b2c&#45;&gt;_7a2198a44f578179dc8e96c483e423346bf212bb366a1d7fc5cef491c825bb70 -->
<g id="edge4" class="edge">
<title>_cfdab38f58c2769eab6e97ec8fe4ee2e3d00fd690bfde61e877e4b05c3709b2c&#45;&gt;_7a2198a44f578179dc8e96c483e423346bf212bb366a1d7fc5cef491c825bb70</title>
<path fill="none" stroke="darkgreen" d="M480.42,-36.46C487.01,-41.18 492.96,-46.98 496.85,-54 544.76,-140.44 533.54,-184.59 496.85,-276.36 495.77,-279.08 494.5,-281.74 493.09,-284.35"/>
<polygon fill="darkgreen" stroke="darkgreen" points="490.13,-282.48 487.77,-292.81 496.06,-286.2 490.13,-282.48"/>
<text text-anchor="middle" x="563.33" y="-139" font-family="Times,serif" font-size="10.00" fill="darkgreen">wasGeneratedBy</text>
</g>
<!-- _cfdab38f58c2769eab6e97ec8fe4ee2e3d00fd690bfde61e877e4b05c3709b2c&#45;&gt;_243b5d196663b32ca6eedf15ee2f5276f2eec4f8526eba892e66e8e8d1969373 -->
<g id="edge5" class="edge">
<title>_cfdab38f58c2769eab6e97ec8fe4ee2e3d00fd690bfde61e877e4b05c3709b2c&#45;&gt;_243b5d196663b32ca6eedf15ee2f5276f2eec4f8526eba892e66e8e8d1969373</title>
<path fill="none" stroke="black" d="M409.75,-36.43C387.32,-49 356.95,-66.02 333.21,-79.32"/>
<polygon fill="black" stroke="black" points="331.82,-76.09 324.8,-84.03 335.24,-82.19 331.82,-76.09"/>
<text text-anchor="middle" x="401.41" y="-55.75" font-family="Times,serif" font-size="10.00">hadMember</text>
</g>
<!-- _23be2b5a9126a05fc364be23b3cce6cc8a2047529d85c0d5f83230b0beb6989d -->
<g id="node8" class="node">
<title>_23be2b5a9126a05fc364be23b3cce6cc8a2047529d85c0d5f83230b0beb6989d</title>
<g id="a_node8"><a xlink:title="ID &#45; urn:example:Generation&#45;a299d02f&#45;ea4f&#45;5340&#45;b0ac&#45;2643ec68fb1e&#10;&#10;Generation of urn:example:ProvenanceRecord&#45;1">
<ellipse fill="lightgray" stroke="dimgray" cx="440.85" cy="-101.25" rx="1.8" ry="1.8"/>
</a>
</g>
</g>
<!-- _cfdab38f58c2769eab6e97ec8fe4ee2e3d00fd690bfde61e877e4b05c3709b2c&#45;&gt;_23be2b5a9126a05fc364be23b3cce6cc8a2047529d85c0d5f83230b0beb6989d -->
<g id="edge16" class="edge">
<title>_cfdab38f58c2769eab6e97ec8fe4ee2e3d00fd690bfde61e877e4b05c3709b2c&#45;&gt;_23be2b5a9126a05fc364be23b3cce6cc8a2047529d85c0d5f83230b0beb6989d</title>
<path fill="none" stroke="dimgray" stroke-dasharray="1,5" d="M440.85,-36.23C440.85,-54.47 440.85,-82.25 440.85,-94.31"/>
<polygon fill="dimgray" stroke="dimgray" points="445.85,-98.24 435.85,-98.24 435.85,-96.24 445.85,-96.24 445.85,-98.24"/>
<polyline fill="none" stroke="dimgray" points="440.85,-99.24 440.85,-94.24"/>
</g>
<!-- _54434fa471843f268f65936af598f29c80e1cd71a44ac3fe2194bb1246df4716 -->
<g id="node5" class="node">
<title>_54434fa471843f268f65936af598f29c80e1cd71a44ac3fe2194bb1246df4716</title>
<g id="a_node5"><a xlink:title="ID &#45; urn:example:End&#45;a276875e&#45;d3e3&#45;5bba&#45;a77f&#45;ee26ca3b0810&#10;&#10;2020&#45;01&#45;02T12:00:30+00:00&#10;&#10;End of urn:example:Action&#45;1">
<ellipse fill="lightgray" stroke="dimgray" cx="178.85" cy="-18" rx="1.8" ry="1.8"/>
</a>
</g>
</g>
<!-- _54434fa471843f268f65936af598f29c80e1cd71a44ac3fe2194bb1246df4716&#45;&gt;_7a2198a44f578179dc8e96c483e423346bf212bb366a1d7fc5cef491c825bb70 -->
<g id="edge6" class="edge">
<title>_54434fa471843f268f65936af598f29c80e1cd71a44ac3fe2194bb1246df4716&#45;&gt;_7a2198a44f578179dc8e96c483e423346bf212bb366a1d7fc5cef491c825bb70</title>
<path fill="none" stroke="dimgray" stroke-dasharray="1,5" d="M185.02,-19.58C217.09,-22.64 365.13,-37.47 407.85,-54 429.75,-62.47 438.4,-64.01 451.85,-83.25 495.57,-145.78 474.22,-239.44 455.51,-294.18"/>
<polygon fill="dimgray" stroke="dimgray" points="180.95,-24.22 181.89,-14.26 183.88,-14.45 182.94,-24.4 180.95,-24.22"/>
<polyline fill="none" stroke="dimgray" points="180.43,-19.15 185.41,-19.61"/>
</g>
<!-- _54434fa471843f268f65936af598f29c80e1cd71a44ac3fe2194bb1246df4716&#45;&gt;_dc2c3059d5723d253760829c5b4f905b22224ac4f7d513addb4f7b86c7836acc -->
<g id="edge8" class="edge">
<title>_54434fa471843f268f65936af598f29c80e1cd71a44ac3fe2194bb1246df4716&#45;&gt;_dc2c3059d5723d253760829c5b4f905b22224ac4f7d513addb4f7b86c7836acc</title>
<path fill="none" stroke="dimgray" stroke-dasharray="1,5" d="M178.03,-19.8C172.87,-24.9 144.91,-53.45 135.85,-83.25 108.53,-173.2 134.03,-289.19 143.58,-326.35"/>
<polygon fill="dimgray" stroke="dimgray" points="140.19,-327.22 146.18,-335.95 146.95,-325.39 140.19,-327.22"/>
</g>
<!-- _54434fa471843f268f65936af598f29c80e1cd71a44ac3fe2194bb1246df4716&#45;&gt;_a9f4db6f08a81e39998fabcaa4512886980dacb58450084db6489297d95be817 -->
<g id="edge12" class="edge">
<title>_54434fa471843f268f65936af598f29c80e1cd71a44ac3fe2194bb1246df4716&#45;&gt;_a9f4db6f08a81e39998fabcaa4512886980dacb58450084db6489297d95be817</title>
<path fill="none" stroke="dimgray" stroke-dasharray="1,5" d="M178.86,-20.15C178.86,-25.36 178.74,-47.35 176.85,-65.25 171.81,-113.14 160.02,-169.31 154.63,-193.59"/>
<polygon fill="dimgray" stroke="dimgray" points="151.25,-192.69 152.45,-203.21 158.08,-194.23 151.25,-192.69"/>
</g>
<!-- _54434fa471843f268f65936af598f29c80e1cd71a44ac3fe2194bb1246df4716&#45;&gt;_23be2b5a9126a05fc364be23b3cce6cc8a2047529d85c0d5f83230b0beb6989d -->
<g id="edge15" class="edge">
<title>_54434fa471843f268f65936af598f29c80e1cd71a44ac3fe2194bb1246df4716&#45;&gt;_23be2b5a9126a05fc364be23b3cce6cc8a2047529d85c0d5f83230b0beb6989d</title>
<path fill="none" stroke="dimgray" stroke-dasharray="1,5" d="M180.6,-18.96C195.77,-18.7 306.35,-18.06 384.85,-54 404.39,-62.94 422.73,-80.47 432.81,-91.19"/>
<polygon fill="dimgray" stroke="dimgray" points="429.89,-93.18 439.16,-98.3 435.11,-88.51 429.89,-93.18"/>
</g>
<!-- _63cda21336994dbffd49f66c4968008eb32cb02814baf1932499e916bd5c7bb1 -->
<g id="node9" class="node">
<title>_63cda21336994dbffd49f66c4968008eb32cb02814baf1932499e916bd5c7bb1</title>
<g id="a_node9"><a xlink:title="ID &#45; urn:example:Invalidation&#45;1&#10;&#10;2020&#45;01&#45;02T12:00:30.5678Z&#10;&#10;Invalidation of urn:example:File&#45;1">
<ellipse fill="lightgray" stroke="dimgray" cx="146.85" cy="-101.25" rx="1.8" ry="1.8"/>
</a>
</g>
</g>
<!-- _54434fa471843f268f65936af598f29c80e1cd71a44ac3fe2194bb1246df4716&#45;&gt;_63cda21336994dbffd49f66c4968008eb32cb02814baf1932499e916bd5c7bb1 -->
<g id="edge17" class="edge">
<title>_54434fa471843f268f65936af598f29c80e1cd71a44ac3fe2194bb1246df4716&#45;&gt;_63cda21336994dbffd49f66c4968008eb32cb02814baf1932499e916bd5c7bb1</title>
<path fill="none" stroke="dimgray" stroke-dasharray="1,5" d="M178.4,-20.15C175.52,-27.47 159.55,-68.01 151.5,-88.45"/>
<polygon fill="dimgray" stroke="dimgray" points="148.3,-87.03 147.89,-97.62 154.81,-89.6 148.3,-87.03"/>
</g>
<!-- _7623d2a56cea53d05f990c68f634df08aeb7a7bb968f902c673e42e42b22b479 -->
<g id="node11" class="node">
<title>_7623d2a56cea53d05f990c68f634df08aeb7a7bb968f902c673e42e42b22b479</title>
<g id="a_node11"><a xlink:title="ID &#45; urn:example:Usage&#45;69a26cdf&#45;cfbb&#45;56de&#45;9073&#45;739a256f8c08&#10;&#10;Usage of http://www.w3.org/ns/prov#EmptyCollection in urn:example:Action&#45;1">
<ellipse fill="lightgray" stroke="dimgray" cx="7.85" cy="-142.88" rx="1.8" ry="1.8"/>
</a>
</g>
</g>
<!-- _54434fa471843f268f65936af598f29c80e1cd71a44ac3fe2194bb1246df4716&#45;&gt;_7623d2a56cea53d05f990c68f634df08aeb7a7bb968f902c673e42e42b22b479 -->
<g id="edge24" class="edge">
<title>_54434fa471843f268f65936af598f29c80e1cd71a44ac3fe2194bb1246df4716&#45;&gt;_7623d2a56cea53d05f990c68f634df08aeb7a7bb968f902c673e42e42b22b479</title>
<path fill="none" stroke="dimgray" stroke-dasharray="1,5" d="M177.11,-19.17C162.06,-20.7 54.29,-32.29 31.85,-54 11.01,-74.18 7.71,-110.56 7.52,-129.56"/>
<polygon fill="dimgray" stroke="dimgray" points="4.02,-129.39 7.75,-139.31 11.01,-129.23 4.02,-129.39"/>
</g>
<!-- _dc2c3059d5723d253760829c5b4f905b22224ac4f7d513addb4f7b86c7836acc&#45;&gt;_514c766e8ad290ece0d24234da5a9b8eb7670f9ce283ceb205b50140adb3e499 -->
<g id="edge19" class="edge">
<title>_dc2c3059d5723d253760829c5b4f905b22224ac4f7d513addb4f7b86c7836acc&#45;&gt;_514c766e8ad290ece0d24234da5a9b8eb7670f9ce283ceb205b50140adb3e499</title>
<path fill="none" stroke="dimgray" stroke-dasharray="1,5" d="M147.38,-341.52C150.74,-348.95 169.49,-390.4 178.72,-410.8"/>
<polygon fill="dimgray" stroke="dimgray" points="175.47,-412.11 182.78,-419.78 181.85,-409.22 175.47,-412.11"/>
</g>
<!-- _a9f4db6f08a81e39998fabcaa4512886980dacb58450084db6489297d95be817&#45;&gt;_dc2c3059d5723d253760829c5b4f905b22224ac4f7d513addb4f7b86c7836acc -->
<g id="edge10" class="edge">
<title>_a9f4db6f08a81e39998fabcaa4512886980dacb58450084db6489297d95be817&#45;&gt;_dc2c3059d5723d253760829c5b4f905b22224ac4f7d513addb4f7b86c7836acc</title>
<path fill="none" stroke="dimgray" stroke-dasharray="1,5" d="M151.82,-208.64C151.48,-217.58 148.48,-296.04 147.31,-326.42"/>
<polygon fill="dimgray" stroke="dimgray" points="143.83,-325.96 146.94,-336.09 150.82,-326.23 143.83,-325.96"/>
</g>
<!-- _a9f4db6f08a81e39998fabcaa4512886980dacb58450084db6489297d95be817&#45;&gt;_514c766e8ad290ece0d24234da5a9b8eb7670f9ce283ceb205b50140adb3e499 -->
<g id="edge20" class="edge">
<title>_a9f4db6f08a81e39998fabcaa4512886980dacb58450084db6489297d95be817&#45;&gt;_514c766e8ad290ece0d24234da5a9b8eb7670f9ce283ceb205b50140adb3e499</title>
<path fill="none" stroke="dimgray" stroke-dasharray="1,5" d="M152.04,-208.61C153.24,-213.69 159.82,-241.88 163.85,-265.11 174.39,-325.78 177.07,-341.05 182.85,-402.36 183.08,-404.7 183.25,-407.2 183.39,-409.61"/>
<polygon fill="dimgray" stroke="dimgray" points="179.89,-409.72 183.77,-419.57 186.88,-409.44 179.89,-409.72"/>
</g>
<!-- _23be2b5a9126a05fc364be23b3cce6cc8a2047529d85c0d5f83230b0beb6989d&#45;&gt;_514c766e8ad290ece0d24234da5a9b8eb7670f9ce283ceb205b50140adb3e499 -->
<g id="edge21" class="edge">
<title>_23be2b5a9126a05fc364be23b3cce6cc8a2047529d85c0d5f83230b0beb6989d&#45;&gt;_514c766e8ad290ece0d24234da5a9b8eb7670f9ce283ceb205b50140adb3e499</title>
<path fill="none" stroke="dimgray" stroke-dasharray="1,5" d="M441.24,-103.37C444.9,-114.35 472.91,-203.62 430.85,-247.11 403.68,-275.21 287.33,-241.92 255.85,-265.11 202.07,-304.74 229.13,-344.87 196.85,-403.36 195.23,-406.3 193.27,-409.34 191.36,-412.11"/>
<polygon fill="dimgray" stroke="dimgray" points="188.67,-409.85 185.53,-419.97 194.3,-414.02 188.67,-409.85"/>
</g>
<!-- _63cda21336994dbffd49f66c4968008eb32cb02814baf1932499e916bd5c7bb1&#45;&gt;_9640acc41515017ae2496fbc88f8afacf04fb0f88982ca5cc407bff57a578d46 -->
<g id="edge7" class="edge">
<title>_63cda21336994dbffd49f66c4968008eb32cb02814baf1932499e916bd5c7bb1&#45;&gt;_9640acc41515017ae2496fbc88f8afacf04fb0f88982ca5cc407bff57a578d46</title>
<path fill="none" stroke="dimgray" stroke-dasharray="1,5" d="M150.68,-106.47C160.47,-117.25 187.17,-146.66 208.99,-170.7"/>
<polygon fill="dimgray" stroke="dimgray" points="144.42,-107.01 151.83,-100.29 153.17,-101.77 145.77,-108.49 144.42,-107.01"/>
<polyline fill="none" stroke="dimgray" points="147.46,-102.91 150.82,-106.61"/>
</g>
<!-- _63cda21336994dbffd49f66c4968008eb32cb02814baf1932499e916bd5c7bb1&#45;&gt;_dc2c3059d5723d253760829c5b4f905b22224ac4f7d513addb4f7b86c7836acc -->
<g id="edge11" class="edge">
<title>_63cda21336994dbffd49f66c4968008eb32cb02814baf1932499e916bd5c7bb1&#45;&gt;_dc2c3059d5723d253760829c5b4f905b22224ac4f7d513addb4f7b86c7836acc</title>
<path fill="none" stroke="dimgray" stroke-dasharray="1,5" d="M146.74,-103.15C146.01,-108.86 142.06,-140.54 140.85,-166.5 139.19,-202.29 139.68,-211.3 140.85,-247.11 141.78,-275.3 144.31,-308.3 145.77,-325.86"/>
<polygon fill="dimgray" stroke="dimgray" points="142.26,-325.9 146.61,-335.57 149.24,-325.3 142.26,-325.9"/>
</g>
<!-- _63cda21336994dbffd49f66c4968008eb32cb02814baf1932499e916bd5c7bb1&#45;&gt;_a9f4db6f08a81e39998fabcaa4512886980dacb58450084db6489297d95be817 -->
<g id="edge14" class="edge">
<title>_63cda21336994dbffd49f66c4968008eb32cb02814baf1932499e916bd5c7bb1&#45;&gt;_a9f4db6f08a81e39998fabcaa4512886980dacb58450084db6489297d95be817</title>
<path fill="none" stroke="dimgray" stroke-dasharray="1,5" d="M146.91,-103.41C147.33,-112.13 150.01,-167.61 151.24,-193.07"/>
<polygon fill="dimgray" stroke="dimgray" points="147.74,-193.18 151.72,-203 154.73,-192.85 147.74,-193.18"/>
</g>
<!-- _63cda21336994dbffd49f66c4968008eb32cb02814baf1932499e916bd5c7bb1&#45;&gt;_514c766e8ad290ece0d24234da5a9b8eb7670f9ce283ceb205b50140adb3e499 -->
<g id="edge22" class="edge">
<title>_63cda21336994dbffd49f66c4968008eb32cb02814baf1932499e916bd5c7bb1&#45;&gt;_514c766e8ad290ece0d24234da5a9b8eb7670f9ce283ceb205b50140adb3e499</title>
<path fill="none" stroke="dimgray" stroke-dasharray="1,5" d="M146.44,-103.34C140.95,-117.99 83.63,-276.77 135.85,-384.36 143.31,-399.72 160.37,-410.71 172.01,-416.75"/>
<polygon fill="dimgray" stroke="dimgray" points="170.36,-419.85 180.91,-420.9 173.32,-413.5 170.36,-419.85"/>
</g>
<!-- _7623d2a56cea53d05f990c68f634df08aeb7a7bb968f902c673e42e42b22b479&#45;&gt;_514c766e8ad290ece0d24234da5a9b8eb7670f9ce283ceb205b50140adb3e499 -->
<g id="edge23" class="edge">
<title>_7623d2a56cea53d05f990c68f634df08aeb7a7bb968f902c673e42e42b22b479&#45;&gt;_514c766e8ad290ece0d24234da5a9b8eb7670f9ce283ceb205b50140adb3e499</title>
<path fill="none" stroke="dimgray" stroke-dasharray="1,5" d="M7.64,-145.02C4.86,-160.37 -22.95,-325.89 57.85,-403.36 73.82,-418.67 141.78,-421.53 170.72,-422.05"/>
<polygon fill="dimgray" stroke="dimgray" points="170.47,-425.55 180.5,-422.15 170.53,-418.55 170.47,-425.55"/>
</g>
</g>
</svg>
