<?xml version="1.0" encoding="UTF-8" standalone="no"?>
<!DOCTYPE svg PUBLIC "-//W3C//DTD SVG 1.1//EN"
 "http://www.w3.org/Graphics/SVG/1.1/DTD/svg11.dtd">
<!-- Generated by graphviz version 8.0.3 (20230416.2022)
 -->
<!-- Title: PROV&#45;O render Pages: 1 -->
<svg width="668pt" height="273pt"
 viewBox="0.00 0.00 668.30 273.20" xmlns="http://www.w3.org/2000/svg" xmlns:xlink="http://www.w3.org/1999/xlink">
<g id="graph0" class="graph" transform="scale(1 1) rotate(0) translate(4 269.2)">
<title>PROV&#45;O render</title>
<polygon fill="white" stroke="none" points="-4,4 -4,-269.2 664.3,-269.2 664.3,4 -4,4"/>
<!-- _681177370bfbced26b33a112314a5d682d1a4ad432a26a5335c8f87b012318ee -->
<g id="node1" class="node">
<title>_681177370bfbced26b33a112314a5d682d1a4ad432a26a5335c8f87b012318ee</title>
<g id="a_node1"><a xlink:title="ID &#45; urn:example:Action&#45;417af923&#45;6ff4&#45;48da&#45;b7a7&#45;177cb5f3d6f3">
<polygon fill="#9fb1fc" stroke="#0000ff" points="321,-151.6 0,-151.6 0,-113.6 321,-113.6 321,-151.6"/>
<text text-anchor="middle" x="160.5" y="-136.4" font-family="Times,serif" font-size="14.00">ID &#45; kb:Action&#45;417af923&#45;6ff4&#45;48da&#45;b7a7&#45;177cb5f3d6f3</text>
<text text-anchor="middle" x="160.5" y="-121.4" font-family="Times,serif" font-size="14.00">[2020&#45;01&#45;02T04:00:00+00:00, ...)</text>
</a>
</g>
</g>
<!-- _ed3d969574bef218f0ac14e36ffe14c3b8c54379c9e704e7b5b1d8eb48161d6b -->
<g id="node7" class="node">
<title>_ed3d969574bef218f0ac14e36ffe14c3b8c54379c9e704e7b5b1d8eb48161d6b</title>
<g id="a_node7"><a xlink:title="Start of urn:example:Action&#45;417af923&#45;6ff4&#45;48da&#45;b7a7&#45;177cb5f3d6f3">
<ellipse fill="lightgray" stroke="dimgray" cx="268.5" cy="-206.6" rx="1.8" ry="1.8"/>
</a>
</g>
</g>
<!-- _681177370bfbced26b33a112314a5d682d1a4ad432a26a5335c8f87b012318ee&#45;&gt;_ed3d969574bef218f0ac14e36ffe14c3b8c54379c9e704e7b5b1d8eb48161d6b -->
<g id="edge7" class="edge">
<title>_681177370bfbced26b33a112314a5d682d1a4ad432a26a5335c8f87b012318ee&#45;&gt;_ed3d969574bef218f0ac14e36ffe14c3b8c54379c9e704e7b5b1d8eb48161d6b</title>
<path fill="none" stroke="dimgray" stroke-dasharray="1,5" d="M188.03,-151.95C213.63,-169.02 249.78,-193.12 263.21,-202.07"/>
<polygon fill="dimgray" stroke="dimgray" points="269.22,-200.07 263.67,-208.39 262.01,-207.28 267.55,-198.96 269.22,-200.07"/>
<polyline fill="none" stroke="dimgray" points="267.28,-204.78 263.12,-202.01"/>
</g>
<!-- _936610e65ec0551309349b62f71f72404694da793d404b2a264828126d4bd276 -->
<g id="node2" class="node">
<title>_936610e65ec0551309349b62f71f72404694da793d404b2a264828126d4bd276</title>
<g id="a_node2"><a xlink:title="ID &#45; urn:example:Action&#45;60dddd50&#45;07ac&#45;4177&#45;930d&#45;7954c56f49b9">
<polygon fill="#9fb1fc" stroke="#0000ff" points="421.5,-77.6 71.5,-77.6 71.5,-39.6 421.5,-39.6 421.5,-77.6"/>
<text text-anchor="middle" x="246.5" y="-62.4" font-family="Times,serif" font-size="14.00">ID &#45; kb:Action&#45;60dddd50&#45;07ac&#45;4177&#45;930d&#45;7954c56f49b9</text>
<text text-anchor="middle" x="246.5" y="-47.4" font-family="Times,serif" font-size="14.00">[2020&#45;01&#45;02T05:00:00+00:00, 2020&#45;01&#45;02T08:00:00+00:00]</text>
</a>
</g>
</g>
<!-- _1f2bbec1d6ac44143a5541f6b7cca4163349ce582e700b518dd3d8bef3580196 -->
<g id="node8" class="node">
<title>_1f2bbec1d6ac44143a5541f6b7cca4163349ce582e700b518dd3d8bef3580196</title>
<g id="a_node8"><a xlink:title="Start of urn:example:Action&#45;60dddd50&#45;07ac&#45;4177&#45;930d&#45;7954c56f49b9">
<ellipse fill="lightgray" stroke="dimgray" cx="340.5" cy="-132.6" rx="1.8" ry="1.8"/>
</a>
</g>
</g>
<!-- _936610e65ec0551309349b62f71f72404694da793d404b2a264828126d4bd276&#45;&gt;_1f2bbec1d6ac44143a5541f6b7cca4163349ce582e700b518dd3d8bef3580196 -->
<g id="edge10" class="edge">
<title>_936610e65ec0551309349b62f71f72404694da793d404b2a264828126d4bd276&#45;&gt;_1f2bbec1d6ac44143a5541f6b7cca4163349ce582e700b518dd3d8bef3580196</title>
<path fill="none" stroke="dimgray" stroke-dasharray="1,5" d="M282.17,-78.04C297.89,-87.3 315.84,-99.55 329.5,-113.6 333.07,-117.27 336.02,-122.3 337.96,-126.11"/>
<polygon fill="dimgray" stroke="dimgray" points="344.14,-127.48 335.1,-131.75 334.24,-129.94 343.28,-125.67 344.14,-127.48"/>
<polyline fill="none" stroke="dimgray" points="340.04,-130.51 337.91,-125.99"/>
</g>
<!-- _cbccc8bf5743bca7a80ff0e3226563ef383df97cc032252160f22a29130607a2 -->
<g id="node3" class="node">
<title>_cbccc8bf5743bca7a80ff0e3226563ef383df97cc032252160f22a29130607a2</title>
<g id="a_node3"><a xlink:title="ID &#45; urn:example:Action&#45;e9f1edc9&#45;4e0c&#45;43c3&#45;a1c4&#45;891143e3fa86">
<polygon fill="#9fb1fc" stroke="#0000ff" points="638.5,-225.6 288.5,-225.6 288.5,-187.6 638.5,-187.6 638.5,-225.6"/>
<text text-anchor="middle" x="463.5" y="-210.4" font-family="Times,serif" font-size="14.00">ID &#45; kb:Action&#45;e9f1edc9&#45;4e0c&#45;43c3&#45;a1c4&#45;891143e3fa86</text>
<text text-anchor="middle" x="463.5" y="-195.4" font-family="Times,serif" font-size="14.00">[2020&#45;01&#45;02T03:00:00+00:00, 2020&#45;01&#45;02T06:00:00+00:00]</text>
</a>
</g>
</g>
<!-- _c721d26c1cf9d9802944628feb5ddf470d8781f440271821a0c12f5820df5869 -->
<g id="node6" class="node">
<title>_c721d26c1cf9d9802944628feb5ddf470d8781f440271821a0c12f5820df5869</title>
<g id="a_node6"><a xlink:title="Start of urn:example:Action&#45;e9f1edc9&#45;4e0c&#45;43c3&#45;a1c4&#45;891143e3fa86">
<ellipse fill="lightgray" stroke="dimgray" cx="463.5" cy="-263.4" rx="1.8" ry="1.8"/>
</a>
</g>
</g>
<!-- _cbccc8bf5743bca7a80ff0e3226563ef383df97cc032252160f22a29130607a2&#45;&gt;_c721d26c1cf9d9802944628feb5ddf470d8781f440271821a0c12f5820df5869 -->
<g id="edge4" class="edge">
<title>_cbccc8bf5743bca7a80ff0e3226563ef383df97cc032252160f22a29130607a2&#45;&gt;_c721d26c1cf9d9802944628feb5ddf470d8781f440271821a0c12f5820df5869</title>
<path fill="none" stroke="dimgray" stroke-dasharray="1,5" d="M463.5,-225.85C463.5,-236.55 463.5,-249.36 463.5,-256.62"/>
<polygon fill="dimgray" stroke="dimgray" points="468.5,-260.25 458.5,-260.25 458.5,-258.25 468.5,-258.25 468.5,-260.25"/>
<polyline fill="none" stroke="dimgray" points="463.5,-261.25 463.5,-256.25"/>
</g>
<!-- _2836c2cf5931b13afbaabc2f580ff228b46f9ac84427a45e4c5c18ab6da4f229 -->
<g id="node4" class="node">
<title>_2836c2cf5931b13afbaabc2f580ff228b46f9ac84427a45e4c5c18ab6da4f229</title>
<g id="a_node4"><a xlink:title="End of urn:example:Action&#45;e9f1edc9&#45;4e0c&#45;43c3&#45;a1c4&#45;891143e3fa86">
<ellipse fill="lightgray" stroke="dimgray" cx="463.5" cy="-58.6" rx="1.8" ry="1.8"/>
</a>
</g>
</g>
<!-- _2836c2cf5931b13afbaabc2f580ff228b46f9ac84427a45e4c5c18ab6da4f229&#45;&gt;_cbccc8bf5743bca7a80ff0e3226563ef383df97cc032252160f22a29130607a2 -->
<g id="edge2" class="edge">
<title>_2836c2cf5931b13afbaabc2f580ff228b46f9ac84427a45e4c5c18ab6da4f229&#45;&gt;_cbccc8bf5743bca7a80ff0e3226563ef383df97cc032252160f22a29130607a2</title>
<path fill="none" stroke="dimgray" stroke-dasharray="1,5" d="M463.5,-65.64C463.5,-86.23 463.5,-154.24 463.5,-187.28"/>
<polygon fill="dimgray" stroke="dimgray" points="458.5,-61.86 468.5,-61.86 468.5,-63.86 458.5,-63.86 458.5,-61.86"/>
<polyline fill="none" stroke="dimgray" points="463.5,-60.86 463.5,-65.86"/>
</g>
<!-- _2836c2cf5931b13afbaabc2f580ff228b46f9ac84427a45e4c5c18ab6da4f229&#45;&gt;_1f2bbec1d6ac44143a5541f6b7cca4163349ce582e700b518dd3d8bef3580196 -->
<g id="edge11" class="edge">
<title>_2836c2cf5931b13afbaabc2f580ff228b46f9ac84427a45e4c5c18ab6da4f229&#45;&gt;_1f2bbec1d6ac44143a5541f6b7cca4163349ce582e700b518dd3d8bef3580196</title>
<path fill="none" stroke="dimgray" stroke-dasharray="1,5" d="M463.11,-60.75C461.98,-63.92 458.41,-72.8 452.5,-77.6 415.51,-107.65 388.49,-83.55 351.5,-113.6 349.1,-115.55 347.08,-118.18 345.46,-120.82"/>
<polygon fill="dimgray" stroke="dimgray" points="342.02,-118.91 340.89,-129.45 348.34,-121.91 342.02,-118.91"/>
</g>
<!-- _ebd2d0c7deb947fc7e764b4590c54ab059b05801f8b9736caf1664192379d78f -->
<g id="node9" class="node">
<title>_ebd2d0c7deb947fc7e764b4590c54ab059b05801f8b9736caf1664192379d78f</title>
<g id="a_node9"><a xlink:title="Usage of http://www.w3.org/ns/prov#EmptyCollection in urn:example:Action&#45;e9f1edc9&#45;4e0c&#45;43c3&#45;a1c4&#45;891143e3fa86">
<ellipse fill="lightgray" stroke="dimgray" cx="658.5" cy="-206.6" rx="1.8" ry="1.8"/>
</a>
</g>
</g>
<!-- _2836c2cf5931b13afbaabc2f580ff228b46f9ac84427a45e4c5c18ab6da4f229&#45;&gt;_ebd2d0c7deb947fc7e764b4590c54ab059b05801f8b9736caf1664192379d78f -->
<g id="edge13" class="edge">
<title>_2836c2cf5931b13afbaabc2f580ff228b46f9ac84427a45e4c5c18ab6da4f229&#45;&gt;_ebd2d0c7deb947fc7e764b4590c54ab059b05801f8b9736caf1664192379d78f</title>
<path fill="none" stroke="dimgray" stroke-dasharray="1,5" d="M464.82,-60.24C477.77,-66.6 583.45,-119.63 647.5,-187.6 649.54,-189.77 651.39,-192.37 652.97,-194.92"/>
<polygon fill="dimgray" stroke="dimgray" points="650.28,-196.31 658.04,-203.52 656.47,-193.04 650.28,-196.31"/>
</g>
<!-- _912a72d841c318eb5b4875a1e5355a418bde5a06ed6aef7b34cfcfd841e76fef -->
<g id="node5" class="node">
<title>_912a72d841c318eb5b4875a1e5355a418bde5a06ed6aef7b34cfcfd841e76fef</title>
<g id="a_node5"><a xlink:title="End of urn:example:Action&#45;60dddd50&#45;07ac&#45;4177&#45;930d&#45;7954c56f49b9">
<ellipse fill="lightgray" stroke="dimgray" cx="441.5" cy="-1.8" rx="1.8" ry="1.8"/>
</a>
</g>
</g>
<!-- _912a72d841c318eb5b4875a1e5355a418bde5a06ed6aef7b34cfcfd841e76fef&#45;&gt;_936610e65ec0551309349b62f71f72404694da793d404b2a264828126d4bd276 -->
<g id="edge1" class="edge">
<title>_912a72d841c318eb5b4875a1e5355a418bde5a06ed6aef7b34cfcfd841e76fef&#45;&gt;_936610e65ec0551309349b62f71f72404694da793d404b2a264828126d4bd276</title>
<path fill="none" stroke="dimgray" stroke-dasharray="1,5" d="M435.06,-4.61C416.07,-9.95 358.73,-26.06 312.23,-39.13"/>
<polygon fill="dimgray" stroke="dimgray" points="437.5,1.27 440.2,-8.36 438.28,-8.9 435.57,0.73 437.5,1.27"/>
<polyline fill="none" stroke="dimgray" points="439.81,-3.27 435,-4.63"/>
</g>
<!-- _912a72d841c318eb5b4875a1e5355a418bde5a06ed6aef7b34cfcfd841e76fef&#45;&gt;_2836c2cf5931b13afbaabc2f580ff228b46f9ac84427a45e4c5c18ab6da4f229 -->
<g id="edge3" class="edge">
<title>_912a72d841c318eb5b4875a1e5355a418bde5a06ed6aef7b34cfcfd841e76fef&#45;&gt;_2836c2cf5931b13afbaabc2f580ff228b46f9ac84427a45e4c5c18ab6da4f229</title>
<path fill="none" stroke="dimgray" stroke-dasharray="1,5" d="M441.88,-3.75C443.89,-8.75 453.33,-32.28 459.06,-46.53"/>
<polygon fill="dimgray" stroke="dimgray" points="456.06,-47.47 463.04,-55.44 462.56,-44.86 456.06,-47.47"/>
</g>
<!-- _70619abae0dd99551ba81004d114bf94b86c8252b0e82d6b7b570ee5d244115b -->
<g id="node11" class="node">
<title>_70619abae0dd99551ba81004d114bf94b86c8252b0e82d6b7b570ee5d244115b</title>
<g id="a_node11"><a xlink:title="Usage of http://www.w3.org/ns/prov#EmptyCollection in urn:example:Action&#45;60dddd50&#45;07ac&#45;4177&#45;930d&#45;7954c56f49b9">
<ellipse fill="lightgray" stroke="dimgray" cx="441.5" cy="-58.6" rx="1.8" ry="1.8"/>
</a>
</g>
</g>
<!-- _912a72d841c318eb5b4875a1e5355a418bde5a06ed6aef7b34cfcfd841e76fef&#45;&gt;_70619abae0dd99551ba81004d114bf94b86c8252b0e82d6b7b570ee5d244115b -->
<g id="edge14" class="edge">
<title>_912a72d841c318eb5b4875a1e5355a418bde5a06ed6aef7b34cfcfd841e76fef&#45;&gt;_70619abae0dd99551ba81004d114bf94b86c8252b0e82d6b7b570ee5d244115b</title>
<path fill="none" stroke="dimgray" stroke-dasharray="1,5" d="M441.5,-3.75C441.5,-8.65 441.5,-31.32 441.5,-45.64"/>
<polygon fill="dimgray" stroke="dimgray" points="438,-45.44 441.5,-55.44 445,-45.44 438,-45.44"/>
</g>
<!-- _ed3d969574bef218f0ac14e36ffe14c3b8c54379c9e704e7b5b1d8eb48161d6b&#45;&gt;_c721d26c1cf9d9802944628feb5ddf470d8781f440271821a0c12f5820df5869 -->
<g id="edge5" class="edge">
<title>_ed3d969574bef218f0ac14e36ffe14c3b8c54379c9e704e7b5b1d8eb48161d6b&#45;&gt;_c721d26c1cf9d9802944628feb5ddf470d8781f440271821a0c12f5820df5869</title>
<path fill="none" stroke="dimgray" stroke-dasharray="1,5" d="M268.86,-208.8C269.9,-212.08 273.26,-221.24 279.5,-225.6 307.67,-245.28 414.34,-257.51 451.02,-261.21"/>
<polygon fill="dimgray" stroke="dimgray" points="450.52,-264.77 460.81,-262.25 451.19,-257.81 450.52,-264.77"/>
</g>
<!-- _1f2bbec1d6ac44143a5541f6b7cca4163349ce582e700b518dd3d8bef3580196&#45;&gt;_ed3d969574bef218f0ac14e36ffe14c3b8c54379c9e704e7b5b1d8eb48161d6b -->
<g id="edge8" class="edge">
<title>_1f2bbec1d6ac44143a5541f6b7cca4163349ce582e700b518dd3d8bef3580196&#45;&gt;_ed3d969574bef218f0ac14e36ffe14c3b8c54379c9e704e7b5b1d8eb48161d6b</title>
<path fill="none" stroke="dimgray" stroke-dasharray="1,5" d="M340.03,-134.67C338.7,-137.62 334.68,-146.01 329.5,-151.6 310.88,-171.68 298.12,-167.52 279.5,-187.6 277.48,-189.78 275.63,-192.39 274.05,-194.94"/>
<polygon fill="dimgray" stroke="dimgray" points="270.56,-193.05 268.97,-203.53 276.74,-196.33 270.56,-193.05"/>
</g>
<!-- _ebd2d0c7deb947fc7e764b4590c54ab059b05801f8b9736caf1664192379d78f&#45;&gt;_c721d26c1cf9d9802944628feb5ddf470d8781f440271821a0c12f5820df5869 -->
<g id="edge6" class="edge">
<title>_ebd2d0c7deb947fc7e764b4590c54ab059b05801f8b9736caf1664192379d78f&#45;&gt;_c721d26c1cf9d9802944628feb5ddf470d8781f440271821a0c12f5820df5869</title>
<path fill="none" stroke="dimgray" stroke-dasharray="1,5" d="M658.14,-208.8C657.1,-212.08 653.74,-221.24 647.5,-225.6 619.33,-245.28 512.66,-257.51 475.98,-261.21"/>
<polygon fill="dimgray" stroke="dimgray" points="475.81,-257.81 466.19,-262.25 476.48,-264.77 475.81,-257.81"/>
</g>
<!-- _c9c2c9e3cfe223c13299c48f9bbb85a8f73e8688fb4d0e45ce307cc29ae3ca79 -->
<g id="node10" class="node">
<title>_c9c2c9e3cfe223c13299c48f9bbb85a8f73e8688fb4d0e45ce307cc29ae3ca79</title>
<g id="a_node10"><a xlink:title="Usage of http://www.w3.org/ns/prov#EmptyCollection in urn:example:Action&#45;417af923&#45;6ff4&#45;48da&#45;b7a7&#45;177cb5f3d6f3">
<ellipse fill="lightgray" stroke="dimgray" cx="362.5" cy="-132.6" rx="1.8" ry="1.8"/>
</a>
</g>
</g>
<!-- _c9c2c9e3cfe223c13299c48f9bbb85a8f73e8688fb4d0e45ce307cc29ae3ca79&#45;&gt;_ed3d969574bef218f0ac14e36ffe14c3b8c54379c9e704e7b5b1d8eb48161d6b -->
<g id="edge9" class="edge">
<title>_c9c2c9e3cfe223c13299c48f9bbb85a8f73e8688fb4d0e45ce307cc29ae3ca79&#45;&gt;_ed3d969574bef218f0ac14e36ffe14c3b8c54379c9e704e7b5b1d8eb48161d6b</title>
<path fill="none" stroke="dimgray" stroke-dasharray="1,5" d="M362.08,-134.72C360.87,-137.78 357.11,-146.45 351.5,-151.6 325.15,-175.8 305.85,-163.4 279.5,-187.6 277.31,-189.61 275.4,-192.16 273.82,-194.7"/>
<polygon fill="dimgray" stroke="dimgray" points="270.27,-192.97 268.92,-203.48 276.53,-196.1 270.27,-192.97"/>
</g>
<!-- _70619abae0dd99551ba81004d114bf94b86c8252b0e82d6b7b570ee5d244115b&#45;&gt;_1f2bbec1d6ac44143a5541f6b7cca4163349ce582e700b518dd3d8bef3580196 -->
<g id="edge12" class="edge">
<title>_70619abae0dd99551ba81004d114bf94b86c8252b0e82d6b7b570ee5d244115b&#45;&gt;_1f2bbec1d6ac44143a5541f6b7cca4163349ce582e700b518dd3d8bef3580196</title>
<path fill="none" stroke="dimgray" stroke-dasharray="1,5" d="M441.09,-60.73C439.9,-63.82 436.2,-72.55 430.5,-77.6 401.62,-103.18 380.38,-88.02 351.5,-113.6 349.27,-115.57 347.35,-118.11 345.77,-120.65"/>
<polygon fill="dimgray" stroke="dimgray" points="342.2,-118.96 340.91,-129.47 348.48,-122.06 342.2,-118.96"/>
</g>
</g>
</svg>
