<?xml version="1.0" encoding="UTF-8" standalone="no"?>
<!DOCTYPE svg PUBLIC "-//W3C//DTD SVG 1.1//EN"
 "http://www.w3.org/Graphics/SVG/1.1/DTD/svg11.dtd">
<!-- Generated by graphviz version 8.0.3 (20230416.2022)
 -->
<!-- Title: PROV&#45;O render Pages: 1 -->
<svg width="292pt" height="118pt"
 viewBox="0.00 0.00 291.50 117.60" xmlns="http://www.w3.org/2000/svg" xmlns:xlink="http://www.w3.org/1999/xlink">
<g id="graph0" class="graph" transform="scale(1 1) rotate(0) translate(4 113.6)">
<title>PROV&#45;O render</title>
<polygon fill="white" stroke="none" points="-4,4 -4,-113.6 287.5,-113.6 287.5,4 -4,4"/>
<!-- _14654b96946c1cb41b691fb9ca10f36fbcc79748d996b5470b31f22fef410695 -->
<g id="node1" class="node">
<title>_14654b96946c1cb41b691fb9ca10f36fbcc79748d996b5470b31f22fef410695</title>
<g id="a_node1"><a xlink:title="ID &#45; urn:example:Activity&#45;1">
<polygon fill="#9fb1fc" stroke="#0000ff" points="116,-62 0,-62 0,-8 116,-8 116,-62"/>
<text text-anchor="middle" x="58" y="-46.8" font-family="Times,serif" font-size="14.00">ID &#45; kb:Activity&#45;1</text>
<text text-anchor="middle" x="58" y="-15.8" font-family="Times,serif" font-size="14.00">A prov:Activity.</text>
</a>
</g>
</g>
<!-- _5c61b543b80b73bf221fdf65a4eb39865f23affb758ec06e4aace7ff5f92a8e3 -->
<g id="node3" class="node">
<title>_5c61b543b80b73bf221fdf65a4eb39865f23affb758ec06e4aace7ff5f92a8e3</title>
<g id="a_node3"><a xlink:title="Start of urn:example:Activity&#45;1">
<ellipse fill="lightgray" stroke="dimgray" cx="58" cy="-107.8" rx="1.8" ry="1.8"/>
</a>
</g>
</g>
<!-- _14654b96946c1cb41b691fb9ca10f36fbcc79748d996b5470b31f22fef410695&#45;&gt;_5c61b543b80b73bf221fdf65a4eb39865f23affb758ec06e4aace7ff5f92a8e3 -->
<g id="edge2" class="edge">
<title>_14654b96946c1cb41b691fb9ca10f36fbcc79748d996b5470b31f22fef410695&#45;&gt;_5c61b543b80b73bf221fdf65a4eb39865f23affb758ec06e4aace7ff5f92a8e3</title>
<path fill="none" stroke="dimgray" stroke-dasharray="1,5" d="M58,-62.36C58,-76.4 58,-92.47 58,-100.91"/>
<polygon fill="dimgray" stroke="dimgray" points="63,-104.72 53,-104.72 53,-102.72 63,-102.72 63,-104.72"/>
<polyline fill="none" stroke="dimgray" points="58,-105.72 58,-100.72"/>
</g>
<!-- _53ee82feaa53092d1b2b5b269ed544431ecd201f59cb18479281ffa7f1c45021 -->
<g id="node2" class="node">
<title>_53ee82feaa53092d1b2b5b269ed544431ecd201f59cb18479281ffa7f1c45021</title>
<g id="a_node2"><a xlink:title="Beginning of urn:example:ProperInterval&#45;1">
<ellipse fill="lightgray" stroke="dimgray" cx="209" cy="-107.8" rx="1.8" ry="1.8"/>
</a>
</g>
</g>
<!-- _96a308bc4eed9bd6d2b4c6f48419022a9c1cfa04ea3ad65fae3359d0badaa527 -->
<g id="node4" class="node">
<title>_96a308bc4eed9bd6d2b4c6f48419022a9c1cfa04ea3ad65fae3359d0badaa527</title>
<g id="a_node4"><a xlink:title="ID &#45; urn:example:ProperInterval&#45;1">
<polygon fill="none" stroke="dimgray" stroke-dasharray="1,5" points="283.5,-70 134.5,-70 134.5,0 283.5,0 283.5,-70"/>
<text text-anchor="middle" x="209" y="-54.8" font-family="Times,serif" font-size="14.00">ID &#45; kb:ProperInterval&#45;1</text>
<text text-anchor="middle" x="209" y="-7.8" font-family="Times,serif" font-size="14.00">A time:ProperInterval.</text>
</a>
</g>
</g>
<!-- _96a308bc4eed9bd6d2b4c6f48419022a9c1cfa04ea3ad65fae3359d0badaa527&#45;&gt;_53ee82feaa53092d1b2b5b269ed544431ecd201f59cb18479281ffa7f1c45021 -->
<g id="edge1" class="edge">
<title>_96a308bc4eed9bd6d2b4c6f48419022a9c1cfa04ea3ad65fae3359d0badaa527&#45;&gt;_53ee82feaa53092d1b2b5b269ed544431ecd201f59cb18479281ffa7f1c45021</title>
<path fill="none" stroke="dimgray" stroke-dasharray="1,5" d="M209,-70.16C209,-81.85 209,-93.73 209,-100.67"/>
<polygon fill="dimgray" stroke="dimgray" points="214,-104.51 204,-104.51 204,-102.51 214,-102.51 214,-104.51"/>
<polyline fill="none" stroke="dimgray" points="209,-105.51 209,-100.51"/>
</g>
</g>
</svg>
