<?xml version="1.0" encoding="UTF-8" standalone="no"?>
<!DOCTYPE svg PUBLIC "-//W3C//DTD SVG 1.1//EN"
 "http://www.w3.org/Graphics/SVG/1.1/DTD/svg11.dtd">
<!-- Generated by graphviz version 12.2.1 (20241206.2353)
 -->
<!-- Title: PROV&#45;O render Pages: 1 -->
<svg width="691pt" height="433pt"
 viewBox="0.00 0.00 691.19 432.96" xmlns="http://www.w3.org/2000/svg" xmlns:xlink="http://www.w3.org/1999/xlink">
<g id="graph0" class="graph" transform="scale(1 1) rotate(0) translate(4 428.96)">
<title>PROV&#45;O render</title>
<polygon fill="white" stroke="none" points="-4,4 -4,-428.96 687.19,-428.96 687.19,4 -4,4"/>
<!-- _cfdab38f58c2769eab6e97ec8fe4ee2e3d00fd690bfde61e877e4b05c3709b2c -->
<g id="node1" class="node">
<title>_cfdab38f58c2769eab6e97ec8fe4ee2e3d00fd690bfde61e877e4b05c3709b2c</title>
<g id="a_node1"><a xlink:title="ID &#45; urn:example:ProvenanceRecord&#45;1">
<polygon fill="#cdc673" stroke="#808080" points="379.88,-36 376.88,-40 355.88,-40 352.88,-36 207.12,-36 207.12,0 379.88,0 379.88,-36"/>
<text text-anchor="middle" x="293.5" y="-12.95" font-family="Times,serif" font-size="14.00">ID &#45; kb:ProvenanceRecord&#45;1</text>
</a>
</g>
</g>
<!-- _243b5d196663b32ca6eedf15ee2f5276f2eec4f8526eba892e66e8e8d1969373 -->
<g id="node3" class="node">
<title>_243b5d196663b32ca6eedf15ee2f5276f2eec4f8526eba892e66e8e8d1969373</title>
<g id="a_node3"><a xlink:title="ID &#45; urn:example:File&#45;2">
<ellipse fill="#fff68f" stroke="#808080" cx="375.5" cy="-101.25" rx="62.61" ry="18"/>
<text text-anchor="middle" x="375.5" y="-96.2" font-family="Times,serif" font-size="14.00">ID &#45; kb:File&#45;2</text>
</a>
</g>
</g>
<!-- _cfdab38f58c2769eab6e97ec8fe4ee2e3d00fd690bfde61e877e4b05c3709b2c&#45;&gt;_243b5d196663b32ca6eedf15ee2f5276f2eec4f8526eba892e66e8e8d1969373 -->
<g id="edge5" class="edge">
<title>_cfdab38f58c2769eab6e97ec8fe4ee2e3d00fd690bfde61e877e4b05c3709b2c&#45;&gt;_243b5d196663b32ca6eedf15ee2f5276f2eec4f8526eba892e66e8e8d1969373</title>
<path fill="none" stroke="black" d="M310.89,-36.23C322.46,-47.69 337.83,-62.93 350.68,-75.66"/>
<polygon fill="black" stroke="black" points="348.05,-77.98 357.62,-82.53 352.98,-73.01 348.05,-77.98"/>
<text text-anchor="middle" x="363.78" y="-55.75" font-family="Times,serif" font-size="10.00">hadMember</text>
</g>
<!-- _7a2198a44f578179dc8e96c483e423346bf212bb366a1d7fc5cef491c825bb70 -->
<g id="node4" class="node">
<title>_7a2198a44f578179dc8e96c483e423346bf212bb366a1d7fc5cef491c825bb70</title>
<g id="a_node4"><a xlink:title="ID &#45; urn:example:Action&#45;1">
<polygon fill="#9fb1fc" stroke="#0000ff" points="349,-384.36 0,-384.36 0,-294.36 349,-294.36 349,-384.36"/>
<text text-anchor="middle" x="174.5" y="-367.06" font-family="Times,serif" font-size="14.00">ID &#45; kb:Action&#45;1</text>
<text text-anchor="middle" x="174.5" y="-350.56" font-family="Times,serif" font-size="14.00">[2020&#45;01&#45;02T12:00:30+00:00, 2020&#45;01&#45;02T12:00:30+00:00]</text>
<text text-anchor="middle" x="174.5" y="-318.06" font-family="Times,serif" font-size="14.00">Activity known to create and delete a temporary file, </text>
<text text-anchor="middle" x="174.5" y="-301.56" font-family="Times,serif" font-size="14.00">File&#45;1, and to create File&#45;2.</text>
</a>
</g>
</g>
<!-- _cfdab38f58c2769eab6e97ec8fe4ee2e3d00fd690bfde61e877e4b05c3709b2c&#45;&gt;_7a2198a44f578179dc8e96c483e423346bf212bb366a1d7fc5cef491c825bb70 -->
<g id="edge4" class="edge">
<title>_cfdab38f58c2769eab6e97ec8fe4ee2e3d00fd690bfde61e877e4b05c3709b2c&#45;&gt;_7a2198a44f578179dc8e96c483e423346bf212bb366a1d7fc5cef491c825bb70</title>
<path fill="none" stroke="darkgreen" d="M215.35,-36.39C202.79,-41.01 190.37,-46.79 179.5,-54 139.27,-80.68 126.24,-91.88 109.75,-137.25 91.8,-186.61 114.19,-243.67 137.41,-284.38"/>
<polygon fill="darkgreen" stroke="darkgreen" points="134.28,-285.96 142.38,-292.8 140.31,-282.41 134.28,-285.96"/>
<text text-anchor="middle" x="144.62" y="-139" font-family="Times,serif" font-size="10.00" fill="darkgreen">wasGeneratedBy</text>
</g>
<!-- _23be2b5a9126a05fc364be23b3cce6cc8a2047529d85c0d5f83230b0beb6989d -->
<g id="node8" class="node">
<title>_23be2b5a9126a05fc364be23b3cce6cc8a2047529d85c0d5f83230b0beb6989d</title>
<g id="a_node8"><a xlink:title="ID &#45; urn:example:Generation&#45;a299d02f&#45;ea4f&#45;5340&#45;b0ac&#45;2643ec68fb1e&#10;&#10;Generation of urn:example:ProvenanceRecord&#45;1">
<ellipse fill="lightgray" stroke="dimgray" cx="293.5" cy="-101.25" rx="1.8" ry="1.8"/>
</a>
</g>
</g>
<!-- _cfdab38f58c2769eab6e97ec8fe4ee2e3d00fd690bfde61e877e4b05c3709b2c&#45;&gt;_23be2b5a9126a05fc364be23b3cce6cc8a2047529d85c0d5f83230b0beb6989d -->
<g id="edge16" class="edge">
<title>_cfdab38f58c2769eab6e97ec8fe4ee2e3d00fd690bfde61e877e4b05c3709b2c&#45;&gt;_23be2b5a9126a05fc364be23b3cce6cc8a2047529d85c0d5f83230b0beb6989d</title>
<path fill="none" stroke="dimgray" stroke-dasharray="1,5" d="M293.5,-36.23C293.5,-54.47 293.5,-82.25 293.5,-94.31"/>
<polygon fill="dimgray" stroke="dimgray" points="298.5,-98.24 288.5,-98.24 288.5,-96.24 298.5,-96.24 298.5,-98.24"/>
<polyline fill="none" stroke="dimgray" points="293.5,-99.24 293.5,-94.24"/>
</g>
<!-- _9640acc41515017ae2496fbc88f8afacf04fb0f88982ca5cc407bff57a578d46 -->
<g id="node2" class="node">
<title>_9640acc41515017ae2496fbc88f8afacf04fb0f88982ca5cc407bff57a578d46</title>
<g id="a_node2"><a xlink:title="ID &#45; urn:example:File&#45;1">
<ellipse fill="#fff68f" stroke="#808080" cx="435.5" cy="-206.81" rx="69.65" ry="40.31"/>
<text text-anchor="middle" x="435.5" y="-218.01" font-family="Times,serif" font-size="14.00">ID &#45; kb:File&#45;1</text>
<text text-anchor="middle" x="435.5" y="-185.51" font-family="Times,serif" font-size="14.00">Temporary file</text>
</a>
</g>
</g>
<!-- _9640acc41515017ae2496fbc88f8afacf04fb0f88982ca5cc407bff57a578d46&#45;&gt;_7a2198a44f578179dc8e96c483e423346bf212bb366a1d7fc5cef491c825bb70 -->
<g id="edge1" class="edge">
<title>_9640acc41515017ae2496fbc88f8afacf04fb0f88982ca5cc407bff57a578d46&#45;&gt;_7a2198a44f578179dc8e96c483e423346bf212bb366a1d7fc5cef491c825bb70</title>
<path fill="none" stroke="darkgreen" d="M383.31,-233.91C351.83,-249.66 310.71,-270.23 273.29,-288.94"/>
<polygon fill="darkgreen" stroke="darkgreen" points="272.09,-285.63 264.71,-293.24 275.22,-291.89 272.09,-285.63"/>
<text text-anchor="middle" x="355.5" y="-266.86" font-family="Times,serif" font-size="10.00" fill="darkgreen">wasGeneratedBy</text>
</g>
<!-- _dc2c3059d5723d253760829c5b4f905b22224ac4f7d513addb4f7b86c7836acc -->
<g id="node6" class="node">
<title>_dc2c3059d5723d253760829c5b4f905b22224ac4f7d513addb4f7b86c7836acc</title>
<g id="a_node6"><a xlink:title="ID &#45; urn:example:Generation&#45;1&#10;&#10;2020&#45;01&#45;02T12:00:30.1234Z&#10;&#10;Generation of urn:example:File&#45;1">
<ellipse fill="lightgray" stroke="dimgray" cx="529.5" cy="-339.36" rx="1.8" ry="1.8"/>
</a>
</g>
</g>
<!-- _9640acc41515017ae2496fbc88f8afacf04fb0f88982ca5cc407bff57a578d46&#45;&gt;_dc2c3059d5723d253760829c5b4f905b22224ac4f7d513addb4f7b86c7836acc -->
<g id="edge9" class="edge">
<title>_9640acc41515017ae2496fbc88f8afacf04fb0f88982ca5cc407bff57a578d46&#45;&gt;_dc2c3059d5723d253760829c5b4f905b22224ac4f7d513addb4f7b86c7836acc</title>
<path fill="none" stroke="dimgray" stroke-dasharray="1,5" d="M461.93,-244.52C484.76,-276.22 515.65,-319.13 525.98,-333.47"/>
<polygon fill="dimgray" stroke="dimgray" points="532.27,-333.65 524.15,-339.49 522.99,-337.87 531.1,-332.03 532.27,-333.65"/>
<polyline fill="none" stroke="dimgray" points="528.8,-337.38 525.88,-333.33"/>
</g>
<!-- _243b5d196663b32ca6eedf15ee2f5276f2eec4f8526eba892e66e8e8d1969373&#45;&gt;_9640acc41515017ae2496fbc88f8afacf04fb0f88982ca5cc407bff57a578d46 -->
<g id="edge3" class="edge">
<title>_243b5d196663b32ca6eedf15ee2f5276f2eec4f8526eba892e66e8e8d1969373&#45;&gt;_9640acc41515017ae2496fbc88f8afacf04fb0f88982ca5cc407bff57a578d46</title>
<path fill="none" stroke="black" d="M369.63,-119.62C367.6,-128.6 366.71,-139.52 370.75,-148.5 373.81,-155.31 378.13,-161.63 383.1,-167.4"/>
<polygon fill="black" stroke="black" points="380.29,-169.53 389.73,-174.36 385.36,-164.7 380.29,-169.53"/>
<text text-anchor="middle" x="405.62" y="-139" font-family="Times,serif" font-size="10.00">wasDerivedFrom</text>
</g>
<!-- _243b5d196663b32ca6eedf15ee2f5276f2eec4f8526eba892e66e8e8d1969373&#45;&gt;_7a2198a44f578179dc8e96c483e423346bf212bb366a1d7fc5cef491c825bb70 -->
<g id="edge2" class="edge">
<title>_243b5d196663b32ca6eedf15ee2f5276f2eec4f8526eba892e66e8e8d1969373&#45;&gt;_7a2198a44f578179dc8e96c483e423346bf212bb366a1d7fc5cef491c825bb70</title>
<path fill="none" stroke="darkgreen" d="M349.06,-117.74C330.3,-129.57 305.25,-147.08 286.75,-166.5 253.15,-201.75 223.44,-248.34 203.04,-284.12"/>
<polygon fill="darkgreen" stroke="darkgreen" points="200.13,-282.15 198.27,-292.58 206.23,-285.58 200.13,-282.15"/>
<text text-anchor="middle" x="321.62" y="-202.93" font-family="Times,serif" font-size="10.00" fill="darkgreen">wasGeneratedBy</text>
</g>
<!-- _a9f4db6f08a81e39998fabcaa4512886980dacb58450084db6489297d95be817 -->
<g id="node7" class="node">
<title>_a9f4db6f08a81e39998fabcaa4512886980dacb58450084db6489297d95be817</title>
<g id="a_node7"><a xlink:title="ID &#45; urn:example:Generation&#45;2&#10;&#10;2020&#45;01&#45;02T12:00:30.3456Z&#10;&#10;Generation of urn:example:File&#45;2">
<ellipse fill="lightgray" stroke="dimgray" cx="524.5" cy="-206.81" rx="1.8" ry="1.8"/>
</a>
</g>
</g>
<!-- _243b5d196663b32ca6eedf15ee2f5276f2eec4f8526eba892e66e8e8d1969373&#45;&gt;_a9f4db6f08a81e39998fabcaa4512886980dacb58450084db6489297d95be817 -->
<g id="edge13" class="edge">
<title>_243b5d196663b32ca6eedf15ee2f5276f2eec4f8526eba892e66e8e8d1969373&#45;&gt;_a9f4db6f08a81e39998fabcaa4512886980dacb58450084db6489297d95be817</title>
<path fill="none" stroke="dimgray" stroke-dasharray="1,5" d="M414.09,-115.81C450.32,-129.27 500.95,-150.2 514.5,-166.5 522.53,-176.17 524.23,-191.46 524.51,-199.84"/>
<polygon fill="dimgray" stroke="dimgray" points="529.54,-203.66 519.54,-203.71 519.53,-201.71 529.53,-201.66 529.54,-203.66"/>
<polyline fill="none" stroke="dimgray" points="524.54,-204.68 524.51,-199.68"/>
</g>
<!-- _514c766e8ad290ece0d24234da5a9b8eb7670f9ce283ceb205b50140adb3e499 -->
<g id="node10" class="node">
<title>_514c766e8ad290ece0d24234da5a9b8eb7670f9ce283ceb205b50140adb3e499</title>
<g id="a_node10"><a xlink:title="ID &#45; urn:example:Start&#45;41c7fd66&#45;75d7&#45;55b5&#45;9e06&#45;ba2b050a92f6&#10;&#10;2020&#45;01&#45;02T12:00:30+00:00&#10;&#10;Start of urn:example:Action&#45;1">
<ellipse fill="lightgray" stroke="dimgray" cx="504.5" cy="-423.16" rx="1.8" ry="1.8"/>
</a>
</g>
</g>
<!-- _7a2198a44f578179dc8e96c483e423346bf212bb366a1d7fc5cef491c825bb70&#45;&gt;_514c766e8ad290ece0d24234da5a9b8eb7670f9ce283ceb205b50140adb3e499 -->
<g id="edge18" class="edge">
<title>_7a2198a44f578179dc8e96c483e423346bf212bb366a1d7fc5cef491c825bb70&#45;&gt;_514c766e8ad290ece0d24234da5a9b8eb7670f9ce283ceb205b50140adb3e499</title>
<path fill="none" stroke="dimgray" stroke-dasharray="1,5" d="M296.55,-384.78C318.63,-391.74 341.6,-398.3 363.5,-403.36 414.53,-415.15 477.77,-420.31 497.97,-421.73"/>
<polygon fill="dimgray" stroke="dimgray" points="502.14,-417 501.47,-426.98 499.47,-426.84 500.14,-416.87 502.14,-417"/>
<polyline fill="none" stroke="dimgray" points="502.8,-422.06 497.81,-421.72"/>
</g>
<!-- _54434fa471843f268f65936af598f29c80e1cd71a44ac3fe2194bb1246df4716 -->
<g id="node5" class="node">
<title>_54434fa471843f268f65936af598f29c80e1cd71a44ac3fe2194bb1246df4716</title>
<g id="a_node5"><a xlink:title="ID &#45; urn:example:End&#45;a276875e&#45;d3e3&#45;5bba&#45;a77f&#45;ee26ca3b0810&#10;&#10;2020&#45;01&#45;02T12:00:30+00:00&#10;&#10;End of urn:example:Action&#45;1">
<ellipse fill="lightgray" stroke="dimgray" cx="529.5" cy="-18" rx="1.8" ry="1.8"/>
</a>
</g>
</g>
<!-- _54434fa471843f268f65936af598f29c80e1cd71a44ac3fe2194bb1246df4716&#45;&gt;_7a2198a44f578179dc8e96c483e423346bf212bb366a1d7fc5cef491c825bb70 -->
<g id="edge6" class="edge">
<title>_54434fa471843f268f65936af598f29c80e1cd71a44ac3fe2194bb1246df4716&#45;&gt;_7a2198a44f578179dc8e96c483e423346bf212bb366a1d7fc5cef491c825bb70</title>
<path fill="none" stroke="dimgray" stroke-dasharray="1,5" d="M522.64,-19.66C490.72,-22.81 356.59,-36.84 318.5,-54 299.7,-62.47 296.65,-68.26 282.5,-83.25 251.2,-116.42 242.27,-125.4 222.5,-166.5 202.69,-207.68 189.77,-258.46 182.38,-294.1"/>
<polygon fill="dimgray" stroke="dimgray" points="526.13,-14.3 527.09,-24.25 525.1,-24.45 524.14,-14.49 526.13,-14.3"/>
<polyline fill="none" stroke="dimgray" points="527.61,-19.18 522.63,-19.66"/>
</g>
<!-- _54434fa471843f268f65936af598f29c80e1cd71a44ac3fe2194bb1246df4716&#45;&gt;_dc2c3059d5723d253760829c5b4f905b22224ac4f7d513addb4f7b86c7836acc -->
<g id="edge8" class="edge">
<title>_54434fa471843f268f65936af598f29c80e1cd71a44ac3fe2194bb1246df4716&#45;&gt;_dc2c3059d5723d253760829c5b4f905b22224ac4f7d513addb4f7b86c7836acc</title>
<path fill="none" stroke="dimgray" stroke-dasharray="1,5" d="M529.97,-20.06C531.78,-24.26 538.37,-40.15 540.5,-54 555.49,-151.68 549.17,-177.91 540.5,-276.36 538.95,-293.93 534.99,-313.97 532.27,-326.4"/>
<polygon fill="dimgray" stroke="dimgray" points="528.88,-325.49 530.05,-336.02 535.71,-327.06 528.88,-325.49"/>
</g>
<!-- _54434fa471843f268f65936af598f29c80e1cd71a44ac3fe2194bb1246df4716&#45;&gt;_a9f4db6f08a81e39998fabcaa4512886980dacb58450084db6489297d95be817 -->
<g id="edge12" class="edge">
<title>_54434fa471843f268f65936af598f29c80e1cd71a44ac3fe2194bb1246df4716&#45;&gt;_a9f4db6f08a81e39998fabcaa4512886980dacb58450084db6489297d95be817</title>
<path fill="none" stroke="dimgray" stroke-dasharray="1,5" d="M529.47,-20.19C529.11,-33.46 525.89,-153.7 524.84,-193.25"/>
<polygon fill="dimgray" stroke="dimgray" points="521.34,-193.12 524.57,-203.21 528.34,-193.3 521.34,-193.12"/>
</g>
<!-- _54434fa471843f268f65936af598f29c80e1cd71a44ac3fe2194bb1246df4716&#45;&gt;_23be2b5a9126a05fc364be23b3cce6cc8a2047529d85c0d5f83230b0beb6989d -->
<g id="edge15" class="edge">
<title>_54434fa471843f268f65936af598f29c80e1cd71a44ac3fe2194bb1246df4716&#45;&gt;_23be2b5a9126a05fc364be23b3cce6cc8a2047529d85c0d5f83230b0beb6989d</title>
<path fill="none" stroke="dimgray" stroke-dasharray="1,5" d="M527.59,-19.05C512.81,-19.52 415.45,-23.72 344.5,-54 323.91,-62.79 318.62,-66.74 303.5,-83.25 301.92,-84.97 300.47,-86.99 299.2,-89.01"/>
<polygon fill="dimgray" stroke="dimgray" points="296.09,-87.4 294.61,-97.89 302.31,-90.61 296.09,-87.4"/>
</g>
<!-- _63cda21336994dbffd49f66c4968008eb32cb02814baf1932499e916bd5c7bb1 -->
<g id="node9" class="node">
<title>_63cda21336994dbffd49f66c4968008eb32cb02814baf1932499e916bd5c7bb1</title>
<g id="a_node9"><a xlink:title="ID &#45; urn:example:Invalidation&#45;1&#10;&#10;2020&#45;01&#45;02T12:00:30.5678Z&#10;&#10;Invalidation of urn:example:File&#45;1">
<ellipse fill="lightgray" stroke="dimgray" cx="584.5" cy="-101.25" rx="1.8" ry="1.8"/>
</a>
</g>
</g>
<!-- _54434fa471843f268f65936af598f29c80e1cd71a44ac3fe2194bb1246df4716&#45;&gt;_63cda21336994dbffd49f66c4968008eb32cb02814baf1932499e916bd5c7bb1 -->
<g id="edge17" class="edge">
<title>_54434fa471843f268f65936af598f29c80e1cd71a44ac3fe2194bb1246df4716&#45;&gt;_63cda21336994dbffd49f66c4968008eb32cb02814baf1932499e916bd5c7bb1</title>
<path fill="none" stroke="dimgray" stroke-dasharray="1,5" d="M530.65,-19.71C535.82,-22.96 557.23,-37.02 568.5,-54 575.41,-64.4 579.66,-78.11 582.03,-87.89"/>
<polygon fill="dimgray" stroke="dimgray" points="578.56,-88.43 584,-97.52 585.42,-87.02 578.56,-88.43"/>
</g>
<!-- _7623d2a56cea53d05f990c68f634df08aeb7a7bb968f902c673e42e42b22b479 -->
<g id="node11" class="node">
<title>_7623d2a56cea53d05f990c68f634df08aeb7a7bb968f902c673e42e42b22b479</title>
<g id="a_node11"><a xlink:title="ID &#45; urn:example:Usage&#45;69a26cdf&#45;cfbb&#45;56de&#45;9073&#45;739a256f8c08&#10;&#10;Usage of http://www.w3.org/ns/prov#EmptyCollection in urn:example:Action&#45;1">
<ellipse fill="lightgray" stroke="dimgray" cx="657.5" cy="-142.88" rx="1.8" ry="1.8"/>
</a>
</g>
</g>
<!-- _54434fa471843f268f65936af598f29c80e1cd71a44ac3fe2194bb1246df4716&#45;&gt;_7623d2a56cea53d05f990c68f634df08aeb7a7bb968f902c673e42e42b22b479 -->
<g id="edge24" class="edge">
<title>_54434fa471843f268f65936af598f29c80e1cd71a44ac3fe2194bb1246df4716&#45;&gt;_7623d2a56cea53d05f990c68f634df08aeb7a7bb968f902c673e42e42b22b479</title>
<path fill="none" stroke="dimgray" stroke-dasharray="1,5" d="M531,-19.71C537.8,-22.96 566.22,-37.04 585.5,-54 613.21,-78.38 638.88,-114.07 650.69,-131.51"/>
<polygon fill="dimgray" stroke="dimgray" points="647.63,-133.23 656.06,-139.65 653.47,-129.37 647.63,-133.23"/>
</g>
<!-- _dc2c3059d5723d253760829c5b4f905b22224ac4f7d513addb4f7b86c7836acc&#45;&gt;_514c766e8ad290ece0d24234da5a9b8eb7670f9ce283ceb205b50140adb3e499 -->
<g id="edge19" class="edge">
<title>_dc2c3059d5723d253760829c5b4f905b22224ac4f7d513addb4f7b86c7836acc&#45;&gt;_514c766e8ad290ece0d24234da5a9b8eb7670f9ce283ceb205b50140adb3e499</title>
<path fill="none" stroke="dimgray" stroke-dasharray="1,5" d="M529.15,-341.52C526.9,-348.86 514.54,-389.31 508.22,-409.98"/>
<polygon fill="dimgray" stroke="dimgray" points="504.89,-408.89 505.32,-419.48 511.59,-410.94 504.89,-408.89"/>
</g>
<!-- _a9f4db6f08a81e39998fabcaa4512886980dacb58450084db6489297d95be817&#45;&gt;_dc2c3059d5723d253760829c5b4f905b22224ac4f7d513addb4f7b86c7836acc -->
<g id="edge10" class="edge">
<title>_a9f4db6f08a81e39998fabcaa4512886980dacb58450084db6489297d95be817&#45;&gt;_dc2c3059d5723d253760829c5b4f905b22224ac4f7d513addb4f7b86c7836acc</title>
<path fill="none" stroke="dimgray" stroke-dasharray="1,5" d="M524.53,-208.64C524.87,-217.58 527.88,-296.04 529.04,-326.42"/>
<polygon fill="dimgray" stroke="dimgray" points="525.53,-326.23 529.41,-336.09 532.53,-325.96 525.53,-326.23"/>
</g>
<!-- _a9f4db6f08a81e39998fabcaa4512886980dacb58450084db6489297d95be817&#45;&gt;_514c766e8ad290ece0d24234da5a9b8eb7670f9ce283ceb205b50140adb3e499 -->
<g id="edge20" class="edge">
<title>_a9f4db6f08a81e39998fabcaa4512886980dacb58450084db6489297d95be817&#45;&gt;_514c766e8ad290ece0d24234da5a9b8eb7670f9ce283ceb205b50140adb3e499</title>
<path fill="none" stroke="dimgray" stroke-dasharray="1,5" d="M524.41,-208.76C523.19,-221.86 509.75,-365.87 505.67,-409.62"/>
<polygon fill="dimgray" stroke="dimgray" points="502.2,-409.11 504.76,-419.39 509.17,-409.76 502.2,-409.11"/>
</g>
<!-- _23be2b5a9126a05fc364be23b3cce6cc8a2047529d85c0d5f83230b0beb6989d&#45;&gt;_514c766e8ad290ece0d24234da5a9b8eb7670f9ce283ceb205b50140adb3e499 -->
<g id="edge21" class="edge">
<title>_23be2b5a9126a05fc364be23b3cce6cc8a2047529d85c0d5f83230b0beb6989d&#45;&gt;_514c766e8ad290ece0d24234da5a9b8eb7670f9ce283ceb205b50140adb3e499</title>
<path fill="none" stroke="dimgray" stroke-dasharray="1,5" d="M293.94,-103.15C296.71,-108.83 312.04,-140.34 323.5,-166.5 339.03,-201.96 336.42,-214.01 356.5,-247.11 399.45,-317.93 470.39,-389.3 495.41,-413.51"/>
<polygon fill="dimgray" stroke="dimgray" points="492.67,-415.74 502.32,-420.11 497.5,-410.67 492.67,-415.74"/>
</g>
<!-- _63cda21336994dbffd49f66c4968008eb32cb02814baf1932499e916bd5c7bb1&#45;&gt;_9640acc41515017ae2496fbc88f8afacf04fb0f88982ca5cc407bff57a578d46 -->
<g id="edge7" class="edge">
<title>_63cda21336994dbffd49f66c4968008eb32cb02814baf1932499e916bd5c7bb1&#45;&gt;_9640acc41515017ae2496fbc88f8afacf04fb0f88982ca5cc407bff57a578d46</title>
<path fill="none" stroke="dimgray" stroke-dasharray="1,5" d="M579.12,-105.99C563.28,-117 515.64,-150.11 479.53,-175.2"/>
<polygon fill="dimgray" stroke="dimgray" points="579.54,-99.61 585.24,-107.82 583.6,-108.96 577.89,-100.75 579.54,-99.61"/>
<polyline fill="none" stroke="dimgray" points="583.21,-103.15 579.11,-106"/>
</g>
<!-- _63cda21336994dbffd49f66c4968008eb32cb02814baf1932499e916bd5c7bb1&#45;&gt;_dc2c3059d5723d253760829c5b4f905b22224ac4f7d513addb4f7b86c7836acc -->
<g id="edge11" class="edge">
<title>_63cda21336994dbffd49f66c4968008eb32cb02814baf1932499e916bd5c7bb1&#45;&gt;_dc2c3059d5723d253760829c5b4f905b22224ac4f7d513addb4f7b86c7836acc</title>
<path fill="none" stroke="dimgray" stroke-dasharray="1,5" d="M584.59,-103.4C585.48,-114.71 591.87,-207.36 568.5,-276.36 561.55,-296.88 546.58,-317.55 537.34,-329.08"/>
<polygon fill="dimgray" stroke="dimgray" points="534.94,-326.5 531.19,-336.41 540.3,-331 534.94,-326.5"/>
</g>
<!-- _63cda21336994dbffd49f66c4968008eb32cb02814baf1932499e916bd5c7bb1&#45;&gt;_a9f4db6f08a81e39998fabcaa4512886980dacb58450084db6489297d95be817 -->
<g id="edge14" class="edge">
<title>_63cda21336994dbffd49f66c4968008eb32cb02814baf1932499e916bd5c7bb1&#45;&gt;_a9f4db6f08a81e39998fabcaa4512886980dacb58450084db6489297d95be817</title>
<path fill="none" stroke="dimgray" stroke-dasharray="1,5" d="M583.83,-103.41C578.64,-112.37 544.84,-170.7 530.7,-195.1"/>
<polygon fill="dimgray" stroke="dimgray" points="527.84,-193.06 525.85,-203.47 533.89,-196.57 527.84,-193.06"/>
</g>
<!-- _63cda21336994dbffd49f66c4968008eb32cb02814baf1932499e916bd5c7bb1&#45;&gt;_514c766e8ad290ece0d24234da5a9b8eb7670f9ce283ceb205b50140adb3e499 -->
<g id="edge22" class="edge">
<title>_63cda21336994dbffd49f66c4968008eb32cb02814baf1932499e916bd5c7bb1&#45;&gt;_514c766e8ad290ece0d24234da5a9b8eb7670f9ce283ceb205b50140adb3e499</title>
<path fill="none" stroke="dimgray" stroke-dasharray="1,5" d="M585.17,-103.28C587.8,-107.36 597.37,-122.89 600.5,-137.25 605.51,-160.28 632.59,-68.9 595.5,-247.11 589.36,-276.62 576.49,-324.78 540.5,-384.36 533.45,-396.03 522.25,-407.05 514.21,-414.14"/>
<polygon fill="dimgray" stroke="dimgray" points="512.16,-411.29 506.72,-420.38 516.64,-416.67 512.16,-411.29"/>
</g>
<!-- _7623d2a56cea53d05f990c68f634df08aeb7a7bb968f902c673e42e42b22b479&#45;&gt;_514c766e8ad290ece0d24234da5a9b8eb7670f9ce283ceb205b50140adb3e499 -->
<g id="edge23" class="edge">
<title>_7623d2a56cea53d05f990c68f634df08aeb7a7bb968f902c673e42e42b22b479&#45;&gt;_514c766e8ad290ece0d24234da5a9b8eb7670f9ce283ceb205b50140adb3e499</title>
<path fill="none" stroke="dimgray" stroke-dasharray="1,5" d="M657.91,-145C663.3,-160.04 719.01,-322.36 644.5,-403.36 627.66,-421.66 549.63,-422.77 517.94,-422.43"/>
<polygon fill="dimgray" stroke="dimgray" points="518.15,-418.94 508.08,-422.25 518.02,-425.94 518.15,-418.94"/>
</g>
</g>
</svg>
