<?xml version="1.0" encoding="UTF-8" standalone="no"?>
<!DOCTYPE svg PUBLIC "-//W3C//DTD SVG 1.1//EN"
 "http://www.w3.org/Graphics/SVG/1.1/DTD/svg11.dtd">
<!-- Generated by graphviz version 8.0.3 (20230416.2022)
 -->
<!-- Title: PROV&#45;O render Pages: 1 -->
<svg width="620pt" height="422pt"
 viewBox="0.00 0.00 619.83 421.97" xmlns="http://www.w3.org/2000/svg" xmlns:xlink="http://www.w3.org/1999/xlink">
<g id="graph0" class="graph" transform="scale(1 1) rotate(0) translate(4 417.97)">
<title>PROV&#45;O render</title>
<polygon fill="white" stroke="none" points="-4,4 -4,-417.97 615.83,-417.97 615.83,4 -4,4"/>
<!-- _7a2198a44f578179dc8e96c483e423346bf212bb366a1d7fc5cef491c825bb70 -->
<g id="node1" class="node">
<title>_7a2198a44f578179dc8e96c483e423346bf212bb366a1d7fc5cef491c825bb70</title>
<g id="a_node1"><a xlink:title="ID &#45; urn:example:Action&#45;1">
<polygon fill="#9fb1fc" stroke="#0000ff" points="611.83,-373.37 261.83,-373.37 261.83,-289.37 611.83,-289.37 611.83,-373.37"/>
<text text-anchor="middle" x="436.83" y="-358.17" font-family="Times,serif" font-size="14.00">ID &#45; kb:Action&#45;1</text>
<text text-anchor="middle" x="436.83" y="-343.17" font-family="Times,serif" font-size="14.00">[2020&#45;01&#45;02T12:00:30+00:00, 2020&#45;01&#45;02T12:00:30+00:00]</text>
<text text-anchor="middle" x="436.83" y="-312.17" font-family="Times,serif" font-size="14.00">Activity known to create and delete a temporary file, </text>
<text text-anchor="middle" x="436.83" y="-297.17" font-family="Times,serif" font-size="14.00">File&#45;1, and to create File&#45;2.</text>
</a>
</g>
</g>
<!-- _514c766e8ad290ece0d24234da5a9b8eb7670f9ce283ceb205b50140adb3e499 -->
<g id="node10" class="node">
<title>_514c766e8ad290ece0d24234da5a9b8eb7670f9ce283ceb205b50140adb3e499</title>
<g id="a_node10"><a xlink:title="Start of urn:example:Action&#45;1">
<ellipse fill="lightgray" stroke="dimgray" cx="182.83" cy="-412.17" rx="1.8" ry="1.8"/>
</a>
</g>
</g>
<!-- _7a2198a44f578179dc8e96c483e423346bf212bb366a1d7fc5cef491c825bb70&#45;&gt;_514c766e8ad290ece0d24234da5a9b8eb7670f9ce283ceb205b50140adb3e499 -->
<g id="edge18" class="edge">
<title>_7a2198a44f578179dc8e96c483e423346bf212bb366a1d7fc5cef491c825bb70&#45;&gt;_514c766e8ad290ece0d24234da5a9b8eb7670f9ce283ceb205b50140adb3e499</title>
<path fill="none" stroke="dimgray" stroke-dasharray="1,5" d="M307.85,-373.8C287.78,-380.11 267.27,-386.47 247.83,-392.37 226.39,-398.87 200.81,-406.12 189.17,-409.39"/>
<polygon fill="dimgray" stroke="dimgray" points="186.75,-415.26 184.05,-405.63 185.98,-405.09 188.68,-414.72 186.75,-415.26"/>
<polyline fill="none" stroke="dimgray" points="184.44,-410.72 189.26,-409.37"/>
</g>
<!-- _9640acc41515017ae2496fbc88f8afacf04fb0f88982ca5cc407bff57a578d46 -->
<g id="node2" class="node">
<title>_9640acc41515017ae2496fbc88f8afacf04fb0f88982ca5cc407bff57a578d46</title>
<g id="a_node2"><a xlink:title="ID &#45; urn:example:File&#45;1">
<ellipse fill="#fff68f" stroke="#808080" cx="240.83" cy="-204.18" rx="70.01" ry="38.37"/>
<text text-anchor="middle" x="240.83" y="-215.98" font-family="Times,serif" font-size="14.00">ID &#45; kb:File&#45;1</text>
<text text-anchor="middle" x="240.83" y="-184.98" font-family="Times,serif" font-size="14.00">Temporary file</text>
</a>
</g>
</g>
<!-- _9640acc41515017ae2496fbc88f8afacf04fb0f88982ca5cc407bff57a578d46&#45;&gt;_7a2198a44f578179dc8e96c483e423346bf212bb366a1d7fc5cef491c825bb70 -->
<g id="edge1" class="edge">
<title>_9640acc41515017ae2496fbc88f8afacf04fb0f88982ca5cc407bff57a578d46&#45;&gt;_7a2198a44f578179dc8e96c483e423346bf212bb366a1d7fc5cef491c825bb70</title>
<path fill="none" stroke="darkgreen" d="M249.81,-242.53C253.86,-252.98 259.64,-263.59 267.83,-271.37 272.12,-275.45 276.72,-279.25 281.54,-282.78"/>
<polygon fill="darkgreen" stroke="darkgreen" points="279.22,-286.12 289.45,-288.88 283.17,-280.34 279.22,-286.12"/>
<text text-anchor="middle" x="302.83" y="-263.37" font-family="Times,serif" font-size="10.00" fill="darkgreen">wasGeneratedBy</text>
</g>
<!-- _dc2c3059d5723d253760829c5b4f905b22224ac4f7d513addb4f7b86c7836acc -->
<g id="node6" class="node">
<title>_dc2c3059d5723d253760829c5b4f905b22224ac4f7d513addb4f7b86c7836acc</title>
<g id="a_node6"><a xlink:title="Generation of urn:example:File&#45;1">
<ellipse fill="lightgray" stroke="dimgray" cx="145.83" cy="-331.37" rx="1.8" ry="1.8"/>
</a>
</g>
</g>
<!-- _9640acc41515017ae2496fbc88f8afacf04fb0f88982ca5cc407bff57a578d46&#45;&gt;_dc2c3059d5723d253760829c5b4f905b22224ac4f7d513addb4f7b86c7836acc -->
<g id="edge9" class="edge">
<title>_9640acc41515017ae2496fbc88f8afacf04fb0f88982ca5cc407bff57a578d46&#45;&gt;_dc2c3059d5723d253760829c5b4f905b22224ac4f7d513addb4f7b86c7836acc</title>
<path fill="none" stroke="dimgray" stroke-dasharray="1,5" d="M214.37,-240.05C191.29,-270.47 159.9,-311.82 149.41,-325.65"/>
<polygon fill="dimgray" stroke="dimgray" points="151.13,-331.65 143.17,-325.61 144.37,-324.01 152.34,-330.06 151.13,-331.65"/>
<polyline fill="none" stroke="dimgray" points="146.54,-329.43 149.57,-325.44"/>
</g>
<!-- _243b5d196663b32ca6eedf15ee2f5276f2eec4f8526eba892e66e8e8d1969373 -->
<g id="node3" class="node">
<title>_243b5d196663b32ca6eedf15ee2f5276f2eec4f8526eba892e66e8e8d1969373</title>
<g id="a_node3"><a xlink:title="ID &#45; urn:example:File&#45;2">
<ellipse fill="#fff68f" stroke="#808080" cx="292.83" cy="-101" rx="59.59" ry="18"/>
<text text-anchor="middle" x="292.83" y="-97.3" font-family="Times,serif" font-size="14.00">ID &#45; kb:File&#45;2</text>
</a>
</g>
</g>
<!-- _243b5d196663b32ca6eedf15ee2f5276f2eec4f8526eba892e66e8e8d1969373&#45;&gt;_7a2198a44f578179dc8e96c483e423346bf212bb366a1d7fc5cef491c825bb70 -->
<g id="edge2" class="edge">
<title>_243b5d196663b32ca6eedf15ee2f5276f2eec4f8526eba892e66e8e8d1969373&#45;&gt;_7a2198a44f578179dc8e96c483e423346bf212bb366a1d7fc5cef491c825bb70</title>
<path fill="none" stroke="darkgreen" d="M314.12,-118.16C320.6,-123.69 327.42,-130.22 332.83,-137 367.75,-180.84 396.87,-238.11 415.33,-278.92"/>
<polygon fill="darkgreen" stroke="darkgreen" points="412.52,-280.22 419.79,-287.92 418.91,-277.37 412.52,-280.22"/>
<text text-anchor="middle" x="431.83" y="-201.68" font-family="Times,serif" font-size="10.00" fill="darkgreen">wasGeneratedBy</text>
</g>
<!-- _243b5d196663b32ca6eedf15ee2f5276f2eec4f8526eba892e66e8e8d1969373&#45;&gt;_9640acc41515017ae2496fbc88f8afacf04fb0f88982ca5cc407bff57a578d46 -->
<g id="edge3" class="edge">
<title>_243b5d196663b32ca6eedf15ee2f5276f2eec4f8526eba892e66e8e8d1969373&#45;&gt;_9640acc41515017ae2496fbc88f8afacf04fb0f88982ca5cc407bff57a578d46</title>
<path fill="none" stroke="black" d="M276.44,-118.44C271.56,-123.99 266.53,-130.45 262.83,-137 259.54,-142.81 256.65,-149.19 254.14,-155.62"/>
<polygon fill="black" stroke="black" points="250.6,-154.1 250.5,-164.69 257.19,-156.48 250.6,-154.1"/>
<text text-anchor="middle" x="297.83" y="-140" font-family="Times,serif" font-size="10.00">wasDerivedFrom</text>
</g>
<!-- _a9f4db6f08a81e39998fabcaa4512886980dacb58450084db6489297d95be817 -->
<g id="node7" class="node">
<title>_a9f4db6f08a81e39998fabcaa4512886980dacb58450084db6489297d95be817</title>
<g id="a_node7"><a xlink:title="Generation of urn:example:File&#45;2">
<ellipse fill="lightgray" stroke="dimgray" cx="150.83" cy="-204.18" rx="1.8" ry="1.8"/>
</a>
</g>
</g>
<!-- _243b5d196663b32ca6eedf15ee2f5276f2eec4f8526eba892e66e8e8d1969373&#45;&gt;_a9f4db6f08a81e39998fabcaa4512886980dacb58450084db6489297d95be817 -->
<g id="edge13" class="edge">
<title>_243b5d196663b32ca6eedf15ee2f5276f2eec4f8526eba892e66e8e8d1969373&#45;&gt;_a9f4db6f08a81e39998fabcaa4512886980dacb58450084db6489297d95be817</title>
<path fill="none" stroke="dimgray" stroke-dasharray="1,5" d="M266.82,-117.44C250.46,-126.84 228.75,-138.78 208.83,-148 188.53,-157.39 177.02,-149.58 161.83,-166 153.67,-174.82 151.54,-189.42 151,-197.45"/>
<polygon fill="dimgray" stroke="dimgray" points="155.86,-201.3 145.86,-200.91 145.94,-198.92 155.93,-199.3 155.86,-201.3"/>
<polyline fill="none" stroke="dimgray" points="150.82,-202.1 151.01,-197.11"/>
</g>
<!-- _cfdab38f58c2769eab6e97ec8fe4ee2e3d00fd690bfde61e877e4b05c3709b2c -->
<g id="node4" class="node">
<title>_cfdab38f58c2769eab6e97ec8fe4ee2e3d00fd690bfde61e877e4b05c3709b2c</title>
<g id="a_node4"><a xlink:title="ID &#45; urn:example:ProvenanceRecord&#45;1">
<polygon fill="#cdc673" stroke="#808080" points="527.33,-36 524.33,-40 503.33,-40 500.33,-36 354.33,-36 354.33,0 527.33,0 527.33,-36"/>
<text text-anchor="middle" x="440.83" y="-14.3" font-family="Times,serif" font-size="14.00">ID &#45; kb:ProvenanceRecord&#45;1</text>
</a>
</g>
</g>
<!-- _cfdab38f58c2769eab6e97ec8fe4ee2e3d00fd690bfde61e877e4b05c3709b2c&#45;&gt;_7a2198a44f578179dc8e96c483e423346bf212bb366a1d7fc5cef491c825bb70 -->
<g id="edge4" class="edge">
<title>_cfdab38f58c2769eab6e97ec8fe4ee2e3d00fd690bfde61e877e4b05c3709b2c&#45;&gt;_7a2198a44f578179dc8e96c483e423346bf212bb366a1d7fc5cef491c825bb70</title>
<path fill="none" stroke="darkgreen" d="M480.4,-36.46C486.99,-41.18 492.94,-46.98 496.83,-54 543.66,-138.5 534.17,-182.27 496.83,-271.37 495.61,-274.27 494.17,-277.11 492.56,-279.86"/>
<polygon fill="darkgreen" stroke="darkgreen" points="489.15,-277.66 486.47,-287.91 494.96,-281.57 489.15,-277.66"/>
<text text-anchor="middle" x="562.83" y="-140" font-family="Times,serif" font-size="10.00" fill="darkgreen">wasGeneratedBy</text>
</g>
<!-- _cfdab38f58c2769eab6e97ec8fe4ee2e3d00fd690bfde61e877e4b05c3709b2c&#45;&gt;_243b5d196663b32ca6eedf15ee2f5276f2eec4f8526eba892e66e8e8d1969373 -->
<g id="edge5" class="edge">
<title>_cfdab38f58c2769eab6e97ec8fe4ee2e3d00fd690bfde61e877e4b05c3709b2c&#45;&gt;_243b5d196663b32ca6eedf15ee2f5276f2eec4f8526eba892e66e8e8d1969373</title>
<path fill="none" stroke="black" d="M409.08,-36.38C385.94,-49.04 354.51,-66.24 330.16,-79.57"/>
<polygon fill="black" stroke="black" points="328.63,-76.96 321.54,-84.83 331.99,-83.1 328.63,-76.96"/>
<text text-anchor="middle" x="399.33" y="-57" font-family="Times,serif" font-size="10.00">hadMember</text>
</g>
<!-- _23be2b5a9126a05fc364be23b3cce6cc8a2047529d85c0d5f83230b0beb6989d -->
<g id="node8" class="node">
<title>_23be2b5a9126a05fc364be23b3cce6cc8a2047529d85c0d5f83230b0beb6989d</title>
<g id="a_node8"><a xlink:title="Generation of urn:example:ProvenanceRecord&#45;1">
<ellipse fill="lightgray" stroke="dimgray" cx="440.83" cy="-101" rx="1.8" ry="1.8"/>
</a>
</g>
</g>
<!-- _cfdab38f58c2769eab6e97ec8fe4ee2e3d00fd690bfde61e877e4b05c3709b2c&#45;&gt;_23be2b5a9126a05fc364be23b3cce6cc8a2047529d85c0d5f83230b0beb6989d -->
<g id="edge16" class="edge">
<title>_cfdab38f58c2769eab6e97ec8fe4ee2e3d00fd690bfde61e877e4b05c3709b2c&#45;&gt;_23be2b5a9126a05fc364be23b3cce6cc8a2047529d85c0d5f83230b0beb6989d</title>
<path fill="none" stroke="dimgray" stroke-dasharray="1,5" d="M440.83,-36.18C440.83,-54.36 440.83,-82.05 440.83,-94.08"/>
<polygon fill="dimgray" stroke="dimgray" points="445.83,-97.99 435.83,-97.99 435.83,-95.99 445.83,-95.99 445.83,-97.99"/>
<polyline fill="none" stroke="dimgray" points="440.83,-98.99 440.83,-93.99"/>
</g>
<!-- _54434fa471843f268f65936af598f29c80e1cd71a44ac3fe2194bb1246df4716 -->
<g id="node5" class="node">
<title>_54434fa471843f268f65936af598f29c80e1cd71a44ac3fe2194bb1246df4716</title>
<g id="a_node5"><a xlink:title="End of urn:example:Action&#45;1">
<ellipse fill="lightgray" stroke="dimgray" cx="177.83" cy="-18" rx="1.8" ry="1.8"/>
</a>
</g>
</g>
<!-- _54434fa471843f268f65936af598f29c80e1cd71a44ac3fe2194bb1246df4716&#45;&gt;_7a2198a44f578179dc8e96c483e423346bf212bb366a1d7fc5cef491c825bb70 -->
<g id="edge6" class="edge">
<title>_54434fa471843f268f65936af598f29c80e1cd71a44ac3fe2194bb1246df4716&#45;&gt;_7a2198a44f578179dc8e96c483e423346bf212bb366a1d7fc5cef491c825bb70</title>
<path fill="none" stroke="dimgray" stroke-dasharray="1,5" d="M184.7,-19.05C212.98,-19.44 322.82,-23 405.83,-54 428.47,-62.46 437.91,-63.24 451.83,-83 494.8,-144.04 472.64,-235.96 453.89,-288.87"/>
<polygon fill="dimgray" stroke="dimgray" points="180.68,-24.01 180.77,-14.01 182.77,-14.03 182.68,-24.03 180.68,-24.01"/>
<polyline fill="none" stroke="dimgray" points="179.73,-19 184.73,-19.05"/>
</g>
<!-- _54434fa471843f268f65936af598f29c80e1cd71a44ac3fe2194bb1246df4716&#45;&gt;_dc2c3059d5723d253760829c5b4f905b22224ac4f7d513addb4f7b86c7836acc -->
<g id="edge8" class="edge">
<title>_54434fa471843f268f65936af598f29c80e1cd71a44ac3fe2194bb1246df4716&#45;&gt;_dc2c3059d5723d253760829c5b4f905b22224ac4f7d513addb4f7b86c7836acc</title>
<path fill="none" stroke="dimgray" stroke-dasharray="1,5" d="M177.01,-19.8C171.88,-24.88 144.06,-53.35 134.83,-83 107.77,-169.91 133,-282.29 142.53,-318.54"/>
<polygon fill="dimgray" stroke="dimgray" points="139.42,-319.41 145.46,-328.12 146.16,-317.55 139.42,-319.41"/>
</g>
<!-- _54434fa471843f268f65936af598f29c80e1cd71a44ac3fe2194bb1246df4716&#45;&gt;_a9f4db6f08a81e39998fabcaa4512886980dacb58450084db6489297d95be817 -->
<g id="edge12" class="edge">
<title>_54434fa471843f268f65936af598f29c80e1cd71a44ac3fe2194bb1246df4716&#45;&gt;_a9f4db6f08a81e39998fabcaa4512886980dacb58450084db6489297d95be817</title>
<path fill="none" stroke="dimgray" stroke-dasharray="1,5" d="M177.84,-20.14C177.86,-25.33 177.81,-47.2 175.83,-65 170.55,-112.3 158.78,-167.83 153.49,-191.52"/>
<polygon fill="dimgray" stroke="dimgray" points="149.9,-190.56 151.09,-201.09 156.72,-192.11 149.9,-190.56"/>
</g>
<!-- _54434fa471843f268f65936af598f29c80e1cd71a44ac3fe2194bb1246df4716&#45;&gt;_23be2b5a9126a05fc364be23b3cce6cc8a2047529d85c0d5f83230b0beb6989d -->
<g id="edge15" class="edge">
<title>_54434fa471843f268f65936af598f29c80e1cd71a44ac3fe2194bb1246df4716&#45;&gt;_23be2b5a9126a05fc364be23b3cce6cc8a2047529d85c0d5f83230b0beb6989d</title>
<path fill="none" stroke="dimgray" stroke-dasharray="1,5" d="M179.57,-18.97C194.71,-18.76 305.12,-18.51 383.83,-54 403.79,-63 422.69,-80.7 432.92,-91.33"/>
<polygon fill="dimgray" stroke="dimgray" points="429.79,-93.18 439.13,-98.18 434.94,-88.45 429.79,-93.18"/>
</g>
<!-- _63cda21336994dbffd49f66c4968008eb32cb02814baf1932499e916bd5c7bb1 -->
<g id="node9" class="node">
<title>_63cda21336994dbffd49f66c4968008eb32cb02814baf1932499e916bd5c7bb1</title>
<g id="a_node9"><a xlink:title="Invalidation of urn:example:File&#45;1">
<ellipse fill="lightgray" stroke="dimgray" cx="145.83" cy="-101" rx="1.8" ry="1.8"/>
</a>
</g>
</g>
<!-- _54434fa471843f268f65936af598f29c80e1cd71a44ac3fe2194bb1246df4716&#45;&gt;_63cda21336994dbffd49f66c4968008eb32cb02814baf1932499e916bd5c7bb1 -->
<g id="edge17" class="edge">
<title>_54434fa471843f268f65936af598f29c80e1cd71a44ac3fe2194bb1246df4716&#45;&gt;_63cda21336994dbffd49f66c4968008eb32cb02814baf1932499e916bd5c7bb1</title>
<path fill="none" stroke="dimgray" stroke-dasharray="1,5" d="M177.38,-20.15C174.46,-27.52 158.21,-68.65 150.24,-88.83"/>
<polygon fill="dimgray" stroke="dimgray" points="146.73,-87.19 146.31,-97.78 153.24,-89.77 146.73,-87.19"/>
</g>
<!-- _7623d2a56cea53d05f990c68f634df08aeb7a7bb968f902c673e42e42b22b479 -->
<g id="node11" class="node">
<title>_7623d2a56cea53d05f990c68f634df08aeb7a7bb968f902c673e42e42b22b479</title>
<g id="a_node11"><a xlink:title="Usage of http://www.w3.org/ns/prov#EmptyCollection in urn:example:Action&#45;1">
<ellipse fill="lightgray" stroke="dimgray" cx="6.83" cy="-142.5" rx="1.8" ry="1.8"/>
</a>
</g>
</g>
<!-- _54434fa471843f268f65936af598f29c80e1cd71a44ac3fe2194bb1246df4716&#45;&gt;_7623d2a56cea53d05f990c68f634df08aeb7a7bb968f902c673e42e42b22b479 -->
<g id="edge24" class="edge">
<title>_54434fa471843f268f65936af598f29c80e1cd71a44ac3fe2194bb1246df4716&#45;&gt;_7623d2a56cea53d05f990c68f634df08aeb7a7bb968f902c673e42e42b22b479</title>
<path fill="none" stroke="dimgray" stroke-dasharray="1,5" d="M176.08,-19.17C161.04,-20.7 53.28,-32.3 30.83,-54 9.95,-74.18 6.69,-110.68 6.51,-129.52"/>
<polygon fill="dimgray" stroke="dimgray" points="3.03,-129.54 6.76,-139.45 10.03,-129.38 3.03,-129.54"/>
</g>
<!-- _dc2c3059d5723d253760829c5b4f905b22224ac4f7d513addb4f7b86c7836acc&#45;&gt;_514c766e8ad290ece0d24234da5a9b8eb7670f9ce283ceb205b50140adb3e499 -->
<g id="edge19" class="edge">
<title>_dc2c3059d5723d253760829c5b4f905b22224ac4f7d513addb4f7b86c7836acc&#45;&gt;_514c766e8ad290ece0d24234da5a9b8eb7670f9ce283ceb205b50140adb3e499</title>
<path fill="none" stroke="dimgray" stroke-dasharray="1,5" d="M146.35,-333.48C149.72,-340.66 168.51,-380.67 177.73,-400.3"/>
<polygon fill="dimgray" stroke="dimgray" points="174.85,-401.42 182.27,-408.98 181.19,-398.44 174.85,-401.42"/>
</g>
<!-- _a9f4db6f08a81e39998fabcaa4512886980dacb58450084db6489297d95be817&#45;&gt;_dc2c3059d5723d253760829c5b4f905b22224ac4f7d513addb4f7b86c7836acc -->
<g id="edge10" class="edge">
<title>_a9f4db6f08a81e39998fabcaa4512886980dacb58450084db6489297d95be817&#45;&gt;_dc2c3059d5723d253760829c5b4f905b22224ac4f7d513addb4f7b86c7836acc</title>
<path fill="none" stroke="dimgray" stroke-dasharray="1,5" d="M150.8,-205.98C150.46,-214.49 147.49,-288.69 146.31,-318.27"/>
<polygon fill="dimgray" stroke="dimgray" points="142.78,-317.96 145.88,-328.09 149.78,-318.24 142.78,-317.96"/>
</g>
<!-- _a9f4db6f08a81e39998fabcaa4512886980dacb58450084db6489297d95be817&#45;&gt;_514c766e8ad290ece0d24234da5a9b8eb7670f9ce283ceb205b50140adb3e499 -->
<g id="edge20" class="edge">
<title>_a9f4db6f08a81e39998fabcaa4512886980dacb58450084db6489297d95be817&#45;&gt;_514c766e8ad290ece0d24234da5a9b8eb7670f9ce283ceb205b50140adb3e499</title>
<path fill="none" stroke="dimgray" stroke-dasharray="1,5" d="M151,-205.96C152.06,-210.86 157.9,-238.05 161.83,-260.37 172.03,-318.37 175.89,-332.77 181.83,-391.37 182.09,-393.93 182.28,-396.68 182.42,-399.3"/>
<polygon fill="dimgray" stroke="dimgray" points="178.96,-399.22 182.81,-409.09 185.95,-398.97 178.96,-399.22"/>
</g>
<!-- _23be2b5a9126a05fc364be23b3cce6cc8a2047529d85c0d5f83230b0beb6989d&#45;&gt;_514c766e8ad290ece0d24234da5a9b8eb7670f9ce283ceb205b50140adb3e499 -->
<g id="edge21" class="edge">
<title>_23be2b5a9126a05fc364be23b3cce6cc8a2047529d85c0d5f83230b0beb6989d&#45;&gt;_514c766e8ad290ece0d24234da5a9b8eb7670f9ce283ceb205b50140adb3e499</title>
<path fill="none" stroke="dimgray" stroke-dasharray="1,5" d="M441.19,-103.08C444.72,-113.74 471.65,-200.27 430.83,-242.37 403.46,-270.59 286.68,-237.33 254.83,-260.37 202.76,-298.03 227.35,-336.37 195.83,-392.37 194.12,-395.4 192.06,-398.57 190.08,-401.41"/>
<polygon fill="dimgray" stroke="dimgray" points="186.72,-399.07 183.6,-409.19 192.36,-403.22 186.72,-399.07"/>
</g>
<!-- _63cda21336994dbffd49f66c4968008eb32cb02814baf1932499e916bd5c7bb1&#45;&gt;_9640acc41515017ae2496fbc88f8afacf04fb0f88982ca5cc407bff57a578d46 -->
<g id="edge7" class="edge">
<title>_63cda21336994dbffd49f66c4968008eb32cb02814baf1932499e916bd5c7bb1&#45;&gt;_9640acc41515017ae2496fbc88f8afacf04fb0f88982ca5cc407bff57a578d46</title>
<path fill="none" stroke="dimgray" stroke-dasharray="1,5" d="M149.74,-106.17C159.78,-116.86 187.22,-146.09 209.38,-169.69"/>
<polygon fill="dimgray" stroke="dimgray" points="143.47,-106.8 150.77,-99.95 152.13,-101.41 144.84,-108.26 143.47,-106.8"/>
<polyline fill="none" stroke="dimgray" points="146.44,-102.65 149.86,-106.29"/>
</g>
<!-- _63cda21336994dbffd49f66c4968008eb32cb02814baf1932499e916bd5c7bb1&#45;&gt;_dc2c3059d5723d253760829c5b4f905b22224ac4f7d513addb4f7b86c7836acc -->
<g id="edge11" class="edge">
<title>_63cda21336994dbffd49f66c4968008eb32cb02814baf1932499e916bd5c7bb1&#45;&gt;_dc2c3059d5723d253760829c5b4f905b22224ac4f7d513addb4f7b86c7836acc</title>
<path fill="none" stroke="dimgray" stroke-dasharray="1,5" d="M145.71,-102.9C144.98,-108.59 141.04,-140.14 139.83,-166 138.24,-199.9 138.67,-208.45 139.83,-242.37 140.75,-269.55 143.28,-301.38 144.75,-318.32"/>
<polygon fill="dimgray" stroke="dimgray" points="141.34,-318.48 145.71,-328.13 148.31,-317.86 141.34,-318.48"/>
</g>
<!-- _63cda21336994dbffd49f66c4968008eb32cb02814baf1932499e916bd5c7bb1&#45;&gt;_a9f4db6f08a81e39998fabcaa4512886980dacb58450084db6489297d95be817 -->
<g id="edge14" class="edge">
<title>_63cda21336994dbffd49f66c4968008eb32cb02814baf1932499e916bd5c7bb1&#45;&gt;_a9f4db6f08a81e39998fabcaa4512886980dacb58450084db6489297d95be817</title>
<path fill="none" stroke="dimgray" stroke-dasharray="1,5" d="M145.88,-103.14C146.31,-111.69 149.01,-166.38 150.23,-191.09"/>
<polygon fill="dimgray" stroke="dimgray" points="146.78,-191.11 150.77,-200.92 153.77,-190.76 146.78,-191.11"/>
</g>
<!-- _63cda21336994dbffd49f66c4968008eb32cb02814baf1932499e916bd5c7bb1&#45;&gt;_514c766e8ad290ece0d24234da5a9b8eb7670f9ce283ceb205b50140adb3e499 -->
<g id="edge22" class="edge">
<title>_63cda21336994dbffd49f66c4968008eb32cb02814baf1932499e916bd5c7bb1&#45;&gt;_514c766e8ad290ece0d24234da5a9b8eb7670f9ce283ceb205b50140adb3e499</title>
<path fill="none" stroke="dimgray" stroke-dasharray="1,5" d="M145.42,-103.05C140.08,-117.16 84.2,-270.06 134.83,-373.37 142.43,-388.87 159.76,-399.94 171.39,-405.95"/>
<polygon fill="dimgray" stroke="dimgray" points="169.71,-409.49 180.26,-410.54 172.67,-403.15 169.71,-409.49"/>
</g>
<!-- _7623d2a56cea53d05f990c68f634df08aeb7a7bb968f902c673e42e42b22b479&#45;&gt;_514c766e8ad290ece0d24234da5a9b8eb7670f9ce283ceb205b50140adb3e499 -->
<g id="edge23" class="edge">
<title>_7623d2a56cea53d05f990c68f634df08aeb7a7bb968f902c673e42e42b22b479&#45;&gt;_514c766e8ad290ece0d24234da5a9b8eb7670f9ce283ceb205b50140adb3e499</title>
<path fill="none" stroke="dimgray" stroke-dasharray="1,5" d="M6.63,-144.6C4.1,-159.34 -21.09,-318.26 56.83,-392.37 72.93,-407.68 141.4,-410.54 170.1,-411.06"/>
<polygon fill="dimgray" stroke="dimgray" points="169.95,-414.57 179.99,-411.17 170.02,-407.57 169.95,-414.57"/>
</g>
</g>
</svg>
