<?xml version="1.0" encoding="UTF-8" standalone="no"?>
<!DOCTYPE svg PUBLIC "-//W3C//DTD SVG 1.1//EN"
 "http://www.w3.org/Graphics/SVG/1.1/DTD/svg11.dtd">
<!-- Generated by graphviz version 12.2.1 (20241206.2353)
 -->
<!-- Title: PROV&#45;O render Pages: 1 -->
<svg width="254pt" height="121pt"
 viewBox="0.00 0.00 253.88 120.60" xmlns="http://www.w3.org/2000/svg" xmlns:xlink="http://www.w3.org/1999/xlink">
<g id="graph0" class="graph" transform="scale(1 1) rotate(0) translate(4 116.6)">
<title>PROV&#45;O render</title>
<polygon fill="white" stroke="none" points="-4,4 -4,-116.6 249.88,-116.6 249.88,4 -4,4"/>
<!-- _14654b96946c1cb41b691fb9ca10f36fbcc79748d996b5470b31f22fef410695 -->
<g id="node1" class="node">
<title>_14654b96946c1cb41b691fb9ca10f36fbcc79748d996b5470b31f22fef410695</title>
<g id="a_node1"><a xlink:title="ID &#45; urn:example:Activity&#45;1">
<polygon fill="#9fb1fc" stroke="#0000ff" points="115,-65 0,-65 0,-8 115,-8 115,-65"/>
<text text-anchor="middle" x="57.5" y="-47.7" font-family="Times,serif" font-size="14.00">ID &#45; kb:Activity&#45;1</text>
<text text-anchor="middle" x="57.5" y="-15.2" font-family="Times,serif" font-size="14.00">A prov:Activity.</text>
</a>
</g>
</g>
<!-- _e3b7da7c43c7e9a599605efaabf7f6b38f1e90afcfe77cac1c50c1dee66fa077 -->
<g id="node3" class="node">
<title>_e3b7da7c43c7e9a599605efaabf7f6b38f1e90afcfe77cac1c50c1dee66fa077</title>
<g id="a_node3"><a xlink:title="Start of urn:example:Activity&#45;1">
<ellipse fill="lightgray" stroke="dimgray" cx="57.5" cy="-110.8" rx="1.8" ry="1.8"/>
</a>
</g>
</g>
<!-- _14654b96946c1cb41b691fb9ca10f36fbcc79748d996b5470b31f22fef410695&#45;&gt;_e3b7da7c43c7e9a599605efaabf7f6b38f1e90afcfe77cac1c50c1dee66fa077 -->
<g id="edge2" class="edge">
<title>_14654b96946c1cb41b691fb9ca10f36fbcc79748d996b5470b31f22fef410695&#45;&gt;_e3b7da7c43c7e9a599605efaabf7f6b38f1e90afcfe77cac1c50c1dee66fa077</title>
<path fill="none" stroke="dimgray" stroke-dasharray="1,5" d="M57.5,-65.25C57.5,-79.46 57.5,-95.52 57.5,-103.93"/>
<polygon fill="dimgray" stroke="dimgray" points="62.5,-107.72 52.5,-107.72 52.5,-105.72 62.5,-105.72 62.5,-107.72"/>
<polyline fill="none" stroke="dimgray" points="57.5,-108.72 57.5,-103.72"/>
</g>
<!-- _217bffed872648b6837690e183dc681fb19660803a4d6ef30e16df31f2da12d0 -->
<g id="node2" class="node">
<title>_217bffed872648b6837690e183dc681fb19660803a4d6ef30e16df31f2da12d0</title>
<g id="a_node2"><a xlink:title="Beginning of urn:example:Interval&#45;1">
<ellipse fill="lightgray" stroke="dimgray" cx="189.5" cy="-110.8" rx="1.8" ry="1.8"/>
</a>
</g>
</g>
<!-- _09b7888078e777ee3357bafe8a5d907f79599f52ae04195842dd7a36fcef5657 -->
<g id="node4" class="node">
<title>_09b7888078e777ee3357bafe8a5d907f79599f52ae04195842dd7a36fcef5657</title>
<g id="a_node4"><a xlink:title="ID &#45; urn:example:Interval&#45;1">
<polygon fill="none" stroke="dimgray" stroke-dasharray="1,5" points="245.88,-73 133.12,-73 133.12,0 245.88,0 245.88,-73"/>
<text text-anchor="middle" x="189.5" y="-55.7" font-family="Times,serif" font-size="14.00">ID &#45; kb:Interval&#45;1</text>
<text text-anchor="middle" x="189.5" y="-7.2" font-family="Times,serif" font-size="14.00">A time:Interval.</text>
</a>
</g>
</g>
<!-- _09b7888078e777ee3357bafe8a5d907f79599f52ae04195842dd7a36fcef5657&#45;&gt;_217bffed872648b6837690e183dc681fb19660803a4d6ef30e16df31f2da12d0 -->
<g id="edge1" class="edge">
<title>_09b7888078e777ee3357bafe8a5d907f79599f52ae04195842dd7a36fcef5657&#45;&gt;_217bffed872648b6837690e183dc681fb19660803a4d6ef30e16df31f2da12d0</title>
<path fill="none" stroke="dimgray" stroke-dasharray="1,5" d="M189.5,-73.23C189.5,-84.99 189.5,-96.82 189.5,-103.72"/>
<polygon fill="dimgray" stroke="dimgray" points="194.5,-107.53 184.5,-107.53 184.5,-105.53 194.5,-105.53 194.5,-107.53"/>
<polyline fill="none" stroke="dimgray" points="189.5,-108.53 189.5,-103.53"/>
</g>
</g>
</svg>
